ffmpeg version 4.4.2-0ubuntu0.22.04.1 Copyright (c) 2000-2021 the FFmpeg developers
  built with gcc 11 (Ubuntu 11.2.0-19ubuntu1)
  configuration: --prefix=/usr --extra-version=0ubuntu0.22.04.1 --toolchain=hardened --libdir=/usr/lib/x86_64-linux-gnu --incdir=/usr/include/x86_64-linux-gnu --arch=amd64 --enable-gpl --disable-stripping --enable-gnutls --enable-ladspa --enable-libaom --enable-libass --enable-libbluray --enable-libbs2b --enable-libcaca --enable-libcdio --enable-libcodec2 --enable-libdav1d --enable-libflite --enable-libfontconfig --enable-libfreetype --enable-libfribidi --enable-libgme --enable-libgsm --enable-libjack --enable-libmp3lame --enable-libmysofa --enable-libopenjpeg --enable-libopenmpt --enable-libopus --enable-libpulse --enable-librabbitmq --enable-librubberband --enable-libshine --enable-libsnappy --enable-libsoxr --enable-libspeex --enable-libsrt --enable-libssh --enable-libtheora --enable-libtwolame --enable-libvidstab --enable-libvorbis --enable-libvpx --enable-libwebp --enable-libx265 --enable-libxml2 --enable-libxvid --enable-libzimg --enable-libzmq --enable-libzvbi --enable-lv2 --enable-omx --enable-openal --enable-opencl --enable-opengl --enable-sdl2 --enable-pocketsphinx --enable-librsvg --enable-libmfx --enable-libdc1394 --enable-libdrm --enable-libiec61883 --enable-chromaprint --enable-frei0r --enable-libx264 --enable-shared
  libavutil      56. 70.100 / 56. 70.100
  libavcodec     58.134.100 / 58.134.100
  libavformat    58. 76.100 / 58. 76.100
  libavdevice    58. 13.100 / 58. 13.100
  libavfilter     7.110.100 /  7.110.100
  libswscale      5.  9.100 /  5.  9.100
  libswresample   3.  9.100 /  3.  9.100
  libpostproc    55.  9.100 / 55.  9.100
Input #0, flv, from '/storage/32426326/20250607/32426326-20250607-155526-110.flv':
  Metadata:
    5.1             : false
    7.1             : false
    2.1             : false
    encoder         : obs-output module (libobs version 31.0.2)
    displayWidth    : 1920
    cdn_ip          : 192.168.252.6
    fps             : 60
    audiochannels   : 2
    4.1             : false
    4.0             : false
    fileSize        : 0
    3.1             : false
    displayHeight   : 1080
    Title           : 技术主播没有GG
    Artist          : 蓝音BuBuLine (32426326)
    Comment         : mikufans直播间 32426326 的直播录像
                    : 主播名: 蓝音BuBuLine
                    : 直播标题: 技术主播没有GG
                    : 直播分区: 单机游戏·主机游戏
                    : 录制时间: 2025-06-07T15:55:26.1190177+00:00
                    : 直播服务器:
                    : d1--ov-gotcha07b.bilivideo.com [156.59.188.246]
                    : 
                    : 使用 mikufans录播姬 录制 https://rec.danmuji.org
                    : 录播姬版本: 2.11.0
    RecordedBy      : BililiveRecorder mikufans录播姬
    RecordedFrom    : d1--ov-gotcha07b.bilivideo.com
    StreamServers   : d1--ov-gotcha07b.bilivideo.com [156.59.188.246]
    RecorderVersion : 2.11.0+Branch.tags-v2.11.0.Sha.d32ebb97483b1ae77acfc6dbcfef17bd64913ccd
    StartTime       : Sat, 07 Jun 2025 15:55:26 +0000
    RoomId          : 32426326
    ShortId         : 0
    Name            : 蓝音BuBuLine
    StreamTitle     : 技术主播没有GG
    AreaNameParent  : 单机游戏
    AreaNameChild   : 主机游戏
  Duration: 10:50:36.39, start: 0.035000, bitrate: 6419 kb/s
  Stream #0:0: Video: h264 (High), yuv420p(tv, bt709, progressive), 1920x1080 [SAR 1:1 DAR 16:9], 8192 kb/s, 60 fps, 60 tbr, 1k tbn, 120 tbc
  Stream #0:1: Audio: aac (LC), 48000 Hz, stereo, fltp, 131 kb/s
Stream mapping:
  Stream #0:0 -> #0:0 (h264 (native) -> png (native))
Press [q] to stop, [?] for help
Output #0, image2, to '/storage/32426326/20250607/32426326-20250607-155526-110.all.thumb.png':
  Metadata:
    5.1             : false
    7.1             : false
    2.1             : false
    AreaNameChild   : 主机游戏
    displayWidth    : 1920
    cdn_ip          : 192.168.252.6
    fps             : 60
    audiochannels   : 2
    4.1             : false
    4.0             : false
    fileSize        : 0
    3.1             : false
    displayHeight   : 1080
    Title           : 技术主播没有GG
    Artist          : 蓝音BuBuLine (32426326)
    Comment         : mikufans直播间 32426326 的直播录像
                    : 主播名: 蓝音BuBuLine
                    : 直播标题: 技术主播没有GG
                    : 直播分区: 单机游戏·主机游戏
                    : 录制时间: 2025-06-07T15:55:26.1190177+00:00
                    : 直播服务器:
                    : d1--ov-gotcha07b.bilivideo.com [156.59.188.246]
                    : 
                    : 使用 mikufans录播姬 录制 https://rec.danmuji.org
                    : 录播姬版本: 2.11.0
    RecordedBy      : BililiveRecorder mikufans录播姬
    RecordedFrom    : d1--ov-gotcha07b.bilivideo.com
    StreamServers   : d1--ov-gotcha07b.bilivideo.com [156.59.188.246]
    RecorderVersion : 2.11.0+Branch.tags-v2.11.0.Sha.d32ebb97483b1ae77acfc6dbcfef17bd64913ccd
    StartTime       : Sat, 07 Jun 2025 15:55:26 +0000
    RoomId          : 32426326
    ShortId         : 0
    Name            : 蓝音BuBuLine
    StreamTitle     : 技术主播没有GG
    AreaNameParent  : 单机游戏
    encoder         : Lavf58.76.100
  Stream #0:0: Video: png, rgb24(pc, gbr/bt709/bt709, progressive), 1920x1080 [SAR 1:1 DAR 16:9], q=2-31, 200 kb/s, 60 fps, 60 tbn
    Metadata:
      encoder         : Lavc58.134.100 png
frame=    1 fps=0.0 q=0.0 size=N/A time=00:00:00.00 bitrate=N/A dup=1 drop=0 speed=   0x    frame=    1 fps=0.0 q=-0.0 Lsize=N/A time=00:00:00.01 bitrate=N/A dup=1 drop=1 speed=0.0684x    
video:853kB audio:0kB subtitle:0kB other streams:0kB global headers:0kB muxing overhead: unknown
ffmpeg version 4.4.2-0ubuntu0.22.04.1 Copyright (c) 2000-2021 the FFmpeg developers
  built with gcc 11 (Ubuntu 11.2.0-19ubuntu1)
  configuration: --prefix=/usr --extra-version=0ubuntu0.22.04.1 --toolchain=hardened --libdir=/usr/lib/x86_64-linux-gnu --incdir=/usr/include/x86_64-linux-gnu --arch=amd64 --enable-gpl --disable-stripping --enable-gnutls --enable-ladspa --enable-libaom --enable-libass --enable-libbluray --enable-libbs2b --enable-libcaca --enable-libcdio --enable-libcodec2 --enable-libdav1d --enable-libflite --enable-libfontconfig --enable-libfreetype --enable-libfribidi --enable-libgme --enable-libgsm --enable-libjack --enable-libmp3lame --enable-libmysofa --enable-libopenjpeg --enable-libopenmpt --enable-libopus --enable-libpulse --enable-librabbitmq --enable-librubberband --enable-libshine --enable-libsnappy --enable-libsoxr --enable-libspeex --enable-libsrt --enable-libssh --enable-libtheora --enable-libtwolame --enable-libvidstab --enable-libvorbis --enable-libvpx --enable-libwebp --enable-libx265 --enable-libxml2 --enable-libxvid --enable-libzimg --enable-libzmq --enable-libzvbi --enable-lv2 --enable-omx --enable-openal --enable-opencl --enable-opengl --enable-sdl2 --enable-pocketsphinx --enable-librsvg --enable-libmfx --enable-libdc1394 --enable-libdrm --enable-libiec61883 --enable-chromaprint --enable-frei0r --enable-libx264 --enable-shared
  libavutil      56. 70.100 / 56. 70.100
  libavcodec     58.134.100 / 58.134.100
  libavformat    58. 76.100 / 58. 76.100
  libavdevice    58. 13.100 / 58. 13.100
  libavfilter     7.110.100 /  7.110.100
  libswscale      5.  9.100 /  5.  9.100
  libswresample   3.  9.100 /  3.  9.100
  libpostproc    55.  9.100 / 55.  9.100
[flv @ 0x557705295fc0] Auto-inserting h264_mp4toannexb bitstream filter
Input #0, concat, from '/storage/32426326/20250607/32426326-20250607-155526-110.all.concat.txt':
  Duration: N/A, start: 0.000000, bitrate: 8323 kb/s
  Stream #0:0: Video: h264 (High), yuv420p(tv, bt709, progressive), 1920x1080 [SAR 1:1 DAR 16:9], 8192 kb/s, 60 fps, 60 tbr, 1k tbn, 120 tbc
  Stream #0:1: Audio: aac (LC), 48000 Hz, stereo, fltp, 131 kb/s
Output #0, flv, to '/storage/32426326/20250607/32426326-20250607-155526-110.all.flv':
  Metadata:
    encoder         : Lavf58.76.100
  Stream #0:0: Video: h264 (High) ([7][0][0][0] / 0x0007), yuv420p(tv, bt709, progressive), 1920x1080 [SAR 1:1 DAR 16:9], q=2-31, 8192 kb/s, 60 fps, 60 tbr, 1k tbn, 1k tbc
  Stream #0:1: Audio: aac (LC) ([10][0][0][0] / 0x000A), 48000 Hz, stereo, fltp, 131 kb/s
Stream mapping:
  Stream #0:0 -> #0:0 (copy)
  Stream #0:1 -> #0:1 (copy)
Press [q] to stop, [?] for help
frame=    1 fps=0.0 q=-1.0 size=       0kB time=00:00:00.00 bitrate=N/A speed=N/A    frame= 3437 fps=0.0 q=-1.0 size=   34560kB time=00:00:57.36 bitrate=4935.2kbits/s speed= 114x    frame= 5668 fps=5657 q=-1.0 size=   70144kB time=00:01:34.56 bitrate=6076.7kbits/s speed=94.4x    frame= 7827 fps=5209 q=-1.0 size=  105984kB time=00:02:10.53 bitrate=6651.1kbits/s speed=86.9x    frame=10039 fps=5013 q=-1.0 size=  142592kB time=00:02:47.37 bitrate=6978.9kbits/s speed=83.6x    frame=12447 fps=4974 q=-1.0 size=  182528kB time=00:03:27.48 bitrate=7206.5kbits/s speed=82.9x    frame=14865 fps=4951 q=-1.0 size=  222464kB time=00:04:07.74 bitrate=7356.1kbits/s speed=82.5x    frame=17225 fps=4918 q=-1.0 size=  261632kB time=00:04:47.08 bitrate=7465.6kbits/s speed=  82x    frame=19612 fps=4899 q=-1.0 size=  301312kB time=00:05:26.83 bitrate=7552.4kbits/s speed=81.6x    frame=22175 fps=4924 q=-1.0 size=  343552kB time=00:06:09.49 bitrate=7616.9kbits/s speed=  82x    frame=24561 fps=4908 q=-1.0 size=  383232kB time=00:06:49.23 bitrate=7671.5kbits/s speed=81.8x    frame=26812 fps=4871 q=-1.0 size=  420352kB time=00:07:26.73 bitrate=7708.2kbits/s speed=81.2x    frame=29235 fps=4869 q=-1.0 size=  460800kB time=00:08:07.07 bitrate=7750.1kbits/s speed=81.1x    frame=31720 fps=4876 q=-1.0 size=  502016kB time=00:08:48.45 bitrate=7782.2kbits/s speed=81.2x    frame=34177 fps=4878 q=-1.0 size=  542464kB time=00:09:29.38 bitrate=7804.6kbits/s speed=81.3x    frame=36683 fps=4887 q=-1.0 size=  583936kB time=00:10:11.13 bitrate=7827.4kbits/s speed=81.4x    frame=39254 fps=4902 q=-1.0 size=  621568kB time=00:10:53.93 bitrate=7786.6kbits/s speed=81.7x    frame=41587 fps=4888 q=-1.0 size=  660224kB time=00:11:32.81 bitrate=7806.6kbits/s speed=81.4x    frame=44045 fps=4890 q=-1.0 size=  700928kB time=00:12:13.74 bitrate=7825.6kbits/s speed=81.5x    frame=46387 fps=4879 q=-1.0 size=  739584kB time=00:12:52.76 bitrate=7840.3kbits/s speed=81.3x    frame=48777 fps=4874 q=-1.0 size=  779264kB time=00:13:32.55 bitrate=7856.3kbits/s speed=81.2x    frame=51185 fps=4871 q=-1.0 size=  819456kB time=00:14:12.64 bitrate=7873.1kbits/s speed=81.1x    frame=53514 fps=4861 q=-1.0 size=  857856kB time=00:14:51.47 bitrate=7883.1kbits/s speed=  81x    frame=56027 fps=4868 q=-1.0 size=  899584kB time=00:15:33.30 bitrate=7896.1kbits/s speed=81.1x    frame=58404 fps=4864 q=-1.0 size=  939008kB time=00:16:12.85 bitrate=7907.0kbits/s speed=  81x    frame=60941 fps=4871 q=-1.0 size=  980992kB time=00:16:55.09 bitrate=7916.8kbits/s speed=81.1x    frame=63341 fps=4868 q=-1.0 size= 1020672kB time=00:17:35.06 bitrate=7925.0kbits/s speed=81.1x    frame=65500 fps=4848 q=-1.0 size= 1056256kB time=00:18:11.03 bitrate=7930.9kbits/s speed=80.8x    frame=67886 fps=4845 q=-1.0 size= 1095936kB time=00:18:50.76 bitrate=7939.7kbits/s speed=80.7x    frame=70388 fps=4850 q=-1.0 size= 1137408kB time=00:19:32.46 bitrate=7947.1kbits/s speed=80.8x    frame=72570 fps=4833 q=-1.0 size= 1173504kB time=00:20:08.77 bitrate=7953.0kbits/s speed=80.5x    frame=74970 fps=4832 q=-1.0 size= 1213440kB time=00:20:48.75 bitrate=7960.3kbits/s speed=80.5x    frame=77358 fps=4830 q=-1.0 size= 1252864kB time=00:21:28.52 bitrate=7965.3kbits/s speed=80.5x    frame=79563 fps=4817 q=-1.0 size= 1289216kB time=00:22:05.25 bitrate=7969.2kbits/s speed=80.2x    frame=82001 fps=4819 q=-1.0 size= 1329664kB time=00:22:45.82 bitrate=7975.1kbits/s speed=80.3x    frame=88530 fps=5054 q=-1.0 size= 1366016kB time=00:24:34.55 bitrate=7589.0kbits/s speed=84.2x    frame=92739 fps=5147 q=-1.0 size= 1404160kB time=00:25:44.63 bitrate=7447.0kbits/s speed=85.7x    frame=98714 fps=5330 q=-1.0 size= 1442304kB time=00:27:24.12 bitrate=7186.4kbits/s speed=88.8x    frame=101704 fps=5347 q=-1.0 size= 1478656kB time=00:28:13.91 bitrate=7151.0kbits/s speed=89.1x    frame=104520 fps=5355 q=-1.0 size= 1519360kB time=00:29:00.84 bitrate=7149.7kbits/s speed=89.2x    frame=107171 fps=5353 q=-1.0 size= 1560064kB time=00:29:44.98 bitrate=7159.8kbits/s speed=89.2x    frame=110001 fps=5361 q=-1.0 size= 1595392kB time=00:30:32.12 bitrate=7133.5kbits/s speed=89.3x    frame=114248 fps=5435 q=-1.0 size= 1634816kB time=00:31:42.86 bitrate=7038.0kbits/s speed=90.5x    frame=117500 fps=5460 q=-1.0 size= 1671168kB time=00:32:37.03 bitrate=6995.4kbits/s speed=90.9x    frame=120938 fps=5492 q=-1.0 size= 1711104kB time=00:33:34.30 bitrate=6958.9kbits/s speed=91.5x    frame=123753 fps=5495 q=-1.0 size= 1751040kB time=00:34:21.16 bitrate=6959.4kbits/s speed=91.5x    frame=126179 fps=5481 q=-1.0 size= 1788928kB time=00:35:01.56 bitrate=6973.3kbits/s speed=91.3x    frame=130362 fps=5542 q=-1.0 size= 1829888kB time=00:36:11.22 bitrate=6904.1kbits/s speed=92.3x    frame=135292 fps=5632 q=-1.0 size= 1869312kB time=00:37:33.36 bitrate=6795.8kbits/s speed=93.8x    frame=138266 fps=5639 q=-1.0 size= 1904640kB time=00:38:22.86 bitrate=6775.4kbits/s speed=93.9x    frame=142738 fps=5705 q=-1.0 size= 1943040kB time=00:39:37.34 bitrate=6695.4kbits/s speed=  95x    frame=145498 fps=5701 q=-1.0 size= 1983232kB time=00:40:23.25 bitrate=6704.5kbits/s speed=94.9x    frame=148736 fps=5716 q=-1.0 size= 2020608kB time=00:41:17.19 bitrate=6682.1kbits/s speed=95.2x    frame=152139 fps=5736 q=-1.0 size= 2062592kB time=00:42:13.91 bitrate=6668.3kbits/s speed=95.5x    frame=156727 fps=5800 q=-1.0 size= 2101760kB time=00:43:30.30 bitrate=6596.0kbits/s speed=96.6x    frame=160708 fps=5839 q=-1.0 size= 2142720kB time=00:44:36.62 bitrate=6557.9kbits/s speed=97.3x    frame=163726 fps=5843 q=-1.0 size= 2184704kB time=00:45:26.86 bitrate=6563.3kbits/s speed=97.3x    frame=166450 fps=5835 q=-1.0 size= 2223360kB time=00:46:12.21 bitrate=6570.1kbits/s speed=97.2x    frame=169220 fps=5830 q=-1.0 size= 2263808kB time=00:46:58.33 bitrate=6580.2kbits/s speed=97.1x    frame=172220 fps=5833 q=-1.0 size= 2306816kB time=00:47:48.31 bitrate=6588.3kbits/s speed=97.1x    frame=174844 fps=5823 q=-1.0 size= 2343936kB time=00:48:32.00 bitrate=6593.9kbits/s speed=  97x    frame=177562 fps=5817 q=-1.0 size= 2386176kB time=00:49:17.28 bitrate=6610.0kbits/s speed=96.9x    frame=182506 fps=5882 q=-1.0 size= 2425600kB time=00:50:39.61 bitrate=6537.2kbits/s speed=  98x    frame=185316 fps=5878 q=-1.0 size= 2464768kB time=00:51:26.41 bitrate=6542.0kbits/s speed=97.9x    frame=190111 fps=5936 q=-1.0 size= 2505984kB time=00:52:46.23 bitrate=6483.7kbits/s speed=98.9x    frame=193193 fps=5940 q=-1.0 size= 2547968kB time=00:53:37.58 bitrate=6487.2kbits/s speed=98.9x    frame=196882 fps=5961 q=-1.0 size= 2590720kB time=00:54:39.03 bitrate=6472.4kbits/s speed=99.3x    frame=200483 fps=5979 q=-1.0 size= 2633216kB time=00:55:38.96 bitrate=6460.5kbits/s speed=99.6x    frame=204800 fps=6018 q=-1.0 size= 2674432kB time=00:56:50.84 bitrate=6423.3kbits/s speed= 100x    frame=207419 fps=6007 q=-1.0 size= 2715904kB time=00:57:34.46 bitrate=6440.6kbits/s speed= 100x    frame=211324 fps=6032 q=-1.0 size= 2757632kB time=00:58:39.53 bitrate=6418.6kbits/s speed= 100x    frame=214373 fps=6033 q=-1.0 size= 2798848kB time=00:59:30.33 bitrate=6421.8kbits/s speed= 100x    frame=217133 fps=6026 q=-1.0 size= 2842112kB time=01:00:16.28 bitrate=6438.3kbits/s speed= 100x    frame=219930 fps=6020 q=-1.0 size= 2883840kB time=01:01:02.85 bitrate=6449.7kbits/s speed= 100x    frame=222775 fps=6015 q=-1.0 size= 2921728kB time=01:01:50.23 bitrate=6451.0kbits/s speed= 100x    frame=225768 fps=6015 q=-1.0 size= 2962688kB time=01:02:40.09 bitrate=6454.7kbits/s speed= 100x    frame=228539 fps=6008 q=-1.0 size= 3000832kB time=01:03:26.23 bitrate=6458.6kbits/s speed= 100x    frame=231124 fps=5997 q=-1.0 size= 3041024kB time=01:04:09.31 bitrate=6471.8kbits/s speed=99.9x    frame=233823 fps=5990 q=-1.0 size= 3082240kB time=01:04:54.22 bitrate=6483.9kbits/s speed=99.8x    frame=236401 fps=5979 q=-1.0 size= 3118336kB time=01:05:37.18 bitrate=6488.2kbits/s speed=99.6x    frame=239555 fps=5983 q=-1.0 size= 3160064kB time=01:06:29.68 bitrate=6488.5kbits/s speed=99.6x    frame=242251 fps=5976 q=-1.0 size= 3202048kB time=01:07:14.61 bitrate=6501.5kbits/s speed=99.5x    frame=244771 fps=5964 q=-1.0 size= 3240960kB time=01:07:56.56 bitrate=6512.8kbits/s speed=99.3x    frame=247503 fps=5958 q=-1.0 size= 3283456kB time=01:08:42.08 bitrate=6525.4kbits/s speed=99.2x    frame=250100 fps=5949 q=-1.0 size= 3323648kB time=01:09:25.33 bitrate=6536.6kbits/s speed=99.1x    frame=253486 fps=5959 q=-1.0 size= 3362304kB time=01:10:21.72 bitrate=6524.3kbits/s speed=99.2x    frame=257289 fps=5978 q=-1.0 size= 3403520kB time=01:11:25.07 bitrate=6506.7kbits/s speed=99.6x    frame=261521 fps=6006 q=-1.0 size= 3439872kB time=01:12:35.54 bitrate=6469.8kbits/s speed= 100x    frame=265012 fps=6018 q=-1.0 size= 3481344kB time=01:13:33.69 bitrate=6461.5kbits/s speed= 100x    frame=271238 fps=6089 q=-1.0 size= 3522816kB time=01:15:17.38 bitrate=6388.4kbits/s speed= 101x    frame=275263 fps=6111 q=-1.0 size= 3562240kB time=01:16:24.41 bitrate=6365.5kbits/s speed= 102x    frame=281714 fps=6186 q=-1.0 size= 3601664kB time=01:18:11.86 bitrate=6288.5kbits/s speed= 103x    frame=285691 fps=6205 q=-1.0 size= 3641856kB time=01:19:18.06 bitrate=6270.2kbits/s speed= 103x    frame=289216 fps=6214 q=-1.0 size= 3678976kB time=01:20:16.76 bitrate=6256.9kbits/s speed= 103x    frame=293578 fps=6240 q=-1.0 size= 3718656kB time=01:21:29.44 bitrate=6230.4kbits/s speed= 104x    frame=296132 fps=6229 q=-1.0 size= 3758080kB time=01:22:11.95 bitrate=6242.2kbits/s speed= 104x    frame=299524 fps=6234 q=-1.0 size= 3799552kB time=01:23:08.44 bitrate=6239.6kbits/s speed= 104x    frame=303866 fps=6260 q=-1.0 size= 3840256kB time=01:24:20.76 bitrate=6216.3kbits/s speed= 104x    frame=306634 fps=6252 q=-1.0 size= 3878400kB time=01:25:06.88 bitrate=6221.4kbits/s speed= 104x    frame=311416 fps=6286 q=-1.0 size= 3919872kB time=01:26:26.51 bitrate=6191.4kbits/s speed= 105x    frame=314382 fps=6282 q=-1.0 size= 3962112kB time=01:27:15.90 bitrate=6199.1kbits/s speed= 105x    frame=317601 fps=6283 q=-1.0 size= 3998720kB time=01:28:09.52 bitrate=6192.9kbits/s speed= 105x    frame=322015 fps=6308 q=-1.0 size= 4043776kB time=01:29:23.01 bitrate=6176.9kbits/s speed= 105x    frame=324988 fps=6305 q=-1.0 size= 4087552kB time=01:30:12.54 bitrate=6186.6kbits/s speed= 105x    frame=328632 fps=6314 q=-1.0 size= 4128256kB time=01:31:13.22 bitrate=6178.9kbits/s speed= 105x    frame=331514 fps=6309 q=-1.0 size= 4167168kB time=01:32:01.20 bitrate=6183.0kbits/s speed= 105x    frame=334294 fps=6302 q=-1.0 size= 4203008kB time=01:32:47.47 bitrate=6184.3kbits/s speed= 105x    frame=337288 fps=6299 q=-1.0 size= 4239616kB time=01:33:37.34 bitrate=6182.8kbits/s speed= 105x    frame=339717 fps=6285 q=-1.0 size= 4278784kB time=01:34:17.80 bitrate=6195.3kbits/s speed= 105x    frame=341896 fps=6268 q=-1.0 size= 4313344kB time=01:34:54.05 bitrate=6205.6kbits/s speed= 104x    frame=345043 fps=6268 q=-1.0 size= 4355328kB time=01:35:46.48 bitrate=6208.8kbits/s speed= 104x    frame=347552 fps=6257 q=-1.0 size= 4395264kB time=01:36:28.22 bitrate=6220.6kbits/s speed= 104x    frame=349915 fps=6243 q=-1.0 size= 4433152kB time=01:37:07.57 bitrate=6231.8kbits/s speed= 104x    frame=353325 fps=6248 q=-1.0 size= 4474624kB time=01:38:04.36 bitrate=6229.4kbits/s speed= 104x    frame=356323 fps=6246 q=-1.0 size= 4514304kB time=01:38:54.27 bitrate=6231.8kbits/s speed= 104x    frame=359068 fps=6239 q=-1.0 size= 4555520kB time=01:39:40.00 bitrate=6240.6kbits/s speed= 104x    frame=361938 fps=6235 q=-1.0 size= 4595968kB time=01:40:27.76 bitrate=6246.1kbits/s speed= 104x    frame=364430 fps=6224 q=-1.0 size= 4633344kB time=01:41:09.29 bitrate=6253.8kbits/s speed= 104x    frame=367110 fps=6217 q=-1.0 size= 4673792kB time=01:41:53.92 bitrate=6262.4kbits/s speed= 104x    frame=370739 fps=6226 q=-1.0 size= 4714752kB time=01:42:54.40 bitrate=6255.4kbits/s speed= 104x    frame=373034 fps=6212 q=-1.0 size= 4750848kB time=01:43:32.61 bitrate=6264.5kbits/s speed= 103x    frame=377199 fps=6229 q=-1.0 size= 4790272kB time=01:44:41.97 bitrate=6246.7kbits/s speed= 104x    frame=380991 fps=6240 q=-1.0 size= 4829696kB time=01:45:45.09 bitrate=6235.5kbits/s speed= 104x    frame=383881 fps=6237 q=-1.0 size= 4871936kB time=01:46:33.20 bitrate=6242.7kbits/s speed= 104x    frame=386825 fps=6234 q=-1.0 size= 4912896kB time=01:47:22.25 bitrate=6247.3kbits/s speed= 104x    frame=389737 fps=6230 q=-1.0 size= 4949760kB time=01:48:10.76 bitrate=6247.1kbits/s speed= 104x    frame=392835 fps=6230 q=-1.0 size= 4989952kB time=01:49:02.32 bitrate=6248.2kbits/s speed= 104x    frame=396548 fps=6240 q=-1.0 size= 5031168kB time=01:50:04.16 bitrate=6240.8kbits/s speed= 104x    frame=399319 fps=6234 q=-1.0 size= 5068288kB time=01:50:50.29 bitrate=6243.2kbits/s speed= 104x    frame=402602 fps=6237 q=-1.0 size= 5108992kB time=01:51:44.97 bitrate=6242.1kbits/s speed= 104x    frame=405752 fps=6237 q=-1.0 size= 5149696kB time=01:52:37.42 bitrate=6243.0kbits/s speed= 104x    frame=408253 fps=6228 q=-1.0 size= 5185280kB time=01:53:19.08 bitrate=6247.6kbits/s speed= 104x    frame=411063 fps=6223 q=-1.0 size= 5225984kB time=01:54:05.88 bitrate=6253.6kbits/s speed= 104x    frame=414029 fps=6221 q=-1.0 size= 5265408kB time=01:54:55.25 bitrate=6255.6kbits/s speed= 104x    frame=417687 fps=6229 q=-1.0 size= 5306880kB time=01:55:56.22 bitrate=6249.7kbits/s speed= 104x    frame=420851 fps=6230 q=-1.0 size= 5348096kB time=01:56:48.91 bitrate=6250.8kbits/s speed= 104x    frame=423785 fps=6227 q=-1.0 size= 5385216kB time=01:57:37.76 bitrate=6250.7kbits/s speed= 104x    frame=426838 fps=6226 q=-1.0 size= 5423872kB time=01:58:28.57 bitrate=6250.5kbits/s speed= 104x    frame=430034 fps=6227 q=-1.0 size= 5465088kB time=01:59:21.79 bitrate=6251.2kbits/s speed= 104x    frame=432552 fps=6219 q=-1.0 size= 5503232kB time=02:00:03.73 bitrate=6258.2kbits/s speed= 104x    frame=435854 fps=6221 q=-1.0 size= 5545216kB time=02:00:58.71 bitrate=6258.2kbits/s speed= 104x    frame=438821 fps=6219 q=-1.0 size= 5584896kB time=02:01:48.14 bitrate=6260.3kbits/s speed= 104x    frame=441655 fps=6215 q=-1.0 size= 5623552kB time=02:02:35.34 bitrate=6263.2kbits/s speed= 104x    frame=444984 fps=6218 q=-1.0 size= 5665536kB time=02:03:30.78 bitrate=6262.8kbits/s speed= 104x    frame=447939 fps=6216 q=-1.0 size= 5704960kB time=02:04:19.98 bitrate=6264.8kbits/s speed= 104x    frame=450877 fps=6214 q=-1.0 size= 5744896kB time=02:05:08.91 bitrate=6267.5kbits/s speed= 103x    frame=454132 fps=6216 q=-1.0 size= 5785856kB time=02:06:03.12 bitrate=6267.0kbits/s speed= 104x    frame=456781 fps=6209 q=-1.0 size= 5821952kB time=02:06:47.21 bitrate=6269.5kbits/s speed= 103x    frame=460013 fps=6211 q=-1.0 size= 5862144kB time=02:07:41.07 bitrate=6268.4kbits/s speed= 103x    frame=462676 fps=6205 q=-1.0 size= 5902592kB time=02:08:25.45 bitrate=6275.3kbits/s speed= 103x    frame=465637 fps=6203 q=-1.0 size= 5938944kB time=02:09:14.78 bitrate=6273.8kbits/s speed= 103x    frame=469014 fps=6207 q=-1.0 size= 5979648kB time=02:10:11.00 bitrate=6271.3kbits/s speed= 103x    frame=472105 fps=6207 q=-1.0 size= 6019328kB time=02:11:02.48 bitrate=6271.6kbits/s speed= 103x    frame=474926 fps=6203 q=-1.0 size= 6056448kB time=02:11:49.47 bitrate=6272.8kbits/s speed= 103x    frame=478093 fps=6204 q=-1.0 size= 6097408kB time=02:12:42.21 bitrate=6273.4kbits/s speed= 103x    frame=480660 fps=6197 q=-1.0 size= 6136064kB time=02:13:24.99 bitrate=6279.4kbits/s speed= 103x    frame=483796 fps=6197 q=-1.0 size= 6177536kB time=02:14:17.21 bitrate=6280.9kbits/s speed= 103x    frame=487245 fps=6202 q=-1.0 size= 6217984kB time=02:15:14.66 bitrate=6277.2kbits/s speed= 103x    frame=489860 fps=6195 q=-1.0 size= 6255104kB time=02:15:58.22 bitrate=6281.0kbits/s speed= 103x    frame=493048 fps=6197 q=-1.0 size= 6296064kB time=02:16:51.31 bitrate=6281.3kbits/s speed= 103x    frame=496055 fps=6195 q=-1.0 size= 6336512kB time=02:17:41.37 bitrate=6283.3kbits/s speed= 103x    frame=498527 fps=6188 q=-1.0 size= 6372096kB time=02:18:22.51 bitrate=6287.3kbits/s speed= 103x    frame=501970 fps=6192 q=-1.0 size= 6416640kB time=02:19:19.84 bitrate=6287.8kbits/s speed= 103x    frame=505172 fps=6193 q=-1.0 size= 6462208kB time=02:20:13.14 bitrate=6292.3kbits/s speed= 103x    frame=508591 fps=6197 q=-1.0 size= 6507008kB time=02:21:10.10 bitrate=6293.4kbits/s speed= 103x    frame=511607 fps=6196 q=-1.0 size= 6548224kB time=02:22:00.30 bitrate=6295.9kbits/s speed= 103x    frame=514326 fps=6191 q=-1.0 size= 6585344kB time=02:22:45.60 bitrate=6298.1kbits/s speed= 103x    frame=517231 fps=6189 q=-1.0 size= 6624768kB time=02:23:34.02 bitrate=6300.2kbits/s speed= 103x    frame=520544 fps=6192 q=-1.0 size= 6666752kB time=02:24:29.17 bitrate=6299.8kbits/s speed= 103x    frame=522990 fps=6184 q=-1.0 size= 6705408kB time=02:25:09.95 bitrate=6306.7kbits/s speed= 103x    frame=528242 fps=6209 q=-1.0 size= 6745856kB time=02:26:37.40 bitrate=6281.6kbits/s speed= 103x    frame=531578 fps=6212 q=-1.0 size= 6785024kB time=02:27:32.92 bitrate=6278.5kbits/s speed= 103x    frame=534703 fps=6212 q=-1.0 size= 6824704kB time=02:28:25.01 bitrate=6278.3kbits/s speed= 103x    frame=537658 fps=6211 q=-1.0 size= 6867200kB time=02:29:14.19 bitrate=6282.7kbits/s speed= 103x    frame=541119 fps=6215 q=-1.0 size= 6907136kB time=02:30:11.79 bitrate=6278.8kbits/s speed= 103x    frame=544509 fps=6218 q=-1.0 size= 6947072kB time=02:31:08.30 bitrate=6275.7kbits/s speed= 104x    frame=550140 fps=6247 q=-1.0 size= 6988544kB time=02:32:42.04 bitrate=6248.6kbits/s speed= 104x    frame=553350 fps=6247 q=-1.0 size= 7028736kB time=02:33:35.51 bitrate=6248.1kbits/s speed= 104x    frame=557635 fps=6260 q=-1.0 size= 7069952kB time=02:34:46.87 bitrate=6236.4kbits/s speed= 104x    frame=560130 fps=6253 q=-1.0 size= 7110912kB time=02:35:28.42 bitrate=6244.6kbits/s speed= 104x    frame=563178 fps=6252 q=-1.0 size= 7146752kB time=02:36:19.20 bitrate=6242.1kbits/s speed= 104x    frame=565943 fps=6248 q=-1.0 size= 7187200kB time=02:37:05.23 bitrate=6246.8kbits/s speed= 104x    frame=568801 fps=6246 q=-1.0 size= 7226624kB time=02:37:52.79 bitrate=6249.5kbits/s speed= 104x    frame=571336 fps=6239 q=-1.0 size= 7263744kB time=02:38:34.96 bitrate=6253.8kbits/s speed= 104x    frame=575761 fps=6253 q=-1.0 size= 7303936kB time=02:39:48.65 bitrate=6240.1kbits/s speed= 104x    frame=578633 fps=6250 q=-1.0 size= 7341568kB time=02:40:36.44 bitrate=6241.1kbits/s speed= 104x    frame=582546 fps=6259 q=-1.0 size= 7380480kB time=02:41:41.63 bitrate=6232.0kbits/s speed= 104x    frame=585338 fps=6255 q=-1.0 size= 7418880kB time=02:42:28.09 bitrate=6234.6kbits/s speed= 104x    frame=588312 fps=6254 q=-1.0 size= 7456256kB time=02:43:17.62 bitrate=6234.3kbits/s speed= 104x    frame=591382 fps=6253 q=-1.0 size= 7497216kB time=02:44:08.76 bitrate=6236.0kbits/s speed= 104x    frame=594639 fps=6254 q=-1.0 size= 7536896kB time=02:45:03.00 bitrate=6234.7kbits/s speed= 104x    frame=597731 fps=6254 q=-1.0 size= 7572992kB time=02:45:54.45 bitrate=6232.2kbits/s speed= 104x    frame=600809 fps=6254 q=-1.0 size= 7612928kB time=02:46:45.73 bitrate=6232.9kbits/s speed= 104x    frame=603322 fps=6247 q=-1.0 size= 7651840kB time=02:47:27.54 bitrate=6238.7kbits/s speed= 104x    frame=607105 fps=6254 q=-1.0 size= 7688960kB time=02:48:30.54 bitrate=6229.9kbits/s speed= 104x    frame=613102 fps=6283 q=-1.0 size= 7727616kB time=02:50:10.42 bitrate=6200.0kbits/s speed= 105x    frame=617226 fps=6293 q=-1.0 size= 7764992kB time=02:51:19.07 bitrate=6188.4kbits/s speed= 105x    frame=621454 fps=6304 q=-1.0 size= 7804416kB time=02:52:29.49 bitrate=6177.5kbits/s speed= 105x    frame=627044 fps=6329 q=-1.0 size= 7842816kB time=02:54:02.57 bitrate=6152.5kbits/s speed= 105x    frame=631606 fps=6343 q=-1.0 size= 7877888kB time=02:55:18.52 bitrate=6135.4kbits/s speed= 106x    frame=635401 fps=6349 q=-1.0 size= 7918080kB time=02:56:21.74 bitrate=6129.9kbits/s speed= 106x    frame=639072 fps=6354 q=-1.0 size= 7956736kB time=02:57:22.87 bitrate=6124.4kbits/s speed= 106x    frame=642163 fps=6353 q=-1.0 size= 7997952kB time=02:58:14.36 bitrate=6126.5kbits/s speed= 106x    frame=645883 fps=6358 q=-1.0 size= 8038656kB time=02:59:16.31 bitrate=6122.2kbits/s speed= 106x    frame=649386 fps=6362 q=-1.0 size= 8075776kB time=03:00:14.68 bitrate=6117.3kbits/s speed= 106x    frame=652965 fps=6365 q=-1.0 size= 8115200kB time=03:01:14.28 bitrate=6113.5kbits/s speed= 106x    frame=656695 fps=6371 q=-1.0 size= 8155136kB time=03:02:16.41 bitrate=6108.7kbits/s speed= 106x    frame=660159 fps=6373 q=-1.0 size= 8193792kB time=03:03:14.12 bitrate=6105.4kbits/s speed= 106x    frame=663455 fps=6374 q=-1.0 size= 8231936kB time=03:04:09.03 bitrate=6103.3kbits/s speed= 106x    frame=666397 fps=6372 q=-1.0 size= 8271104kB time=03:04:58.05 bitrate=6105.3kbits/s speed= 106x    frame=670525 fps=6381 q=-1.0 size= 8311552kB time=03:06:06.78 bitrate=6097.4kbits/s speed= 106x    frame=673408 fps=6378 q=-1.0 size= 8347904kB time=03:06:54.77 bitrate=6097.8kbits/s speed= 106x    frame=677788 fps=6389 q=-1.0 size= 8388096kB time=03:08:07.74 bitrate=6087.6kbits/s speed= 106x    frame=681187 fps=6391 q=-1.0 size= 8429056kB time=03:09:04.32 bitrate=6086.8kbits/s speed= 106x    frame=684867 fps=6395 q=-1.0 size= 8464896kB time=03:10:05.61 bitrate=6079.9kbits/s speed= 107x    frame=688379 fps=6398 q=-1.0 size= 8505856kB time=03:11:04.05 bitrate=6078.1kbits/s speed= 107x    frame=692426 fps=6406 q=-1.0 size= 8545536kB time=03:12:11.48 bitrate=6070.8kbits/s speed= 107x    frame=697784 fps=6426 q=-1.0 size= 8581632kB time=03:13:40.71 bitrate=6049.6kbits/s speed= 107x    frame=700986 fps=6426 q=-1.0 size= 8622592kB time=03:14:34.06 bitrate=6050.7kbits/s speed= 107x    frame=703665 fps=6421 q=-1.0 size= 8661248kB time=03:15:18.65 bitrate=6054.7kbits/s speed= 107x    frame=706730 fps=6420 q=-1.0 size= 8703488kB time=03:16:09.71 bitrate=6057.8kbits/s speed= 107x    frame=709969 fps=6420 q=-1.0 size= 8744192kB time=03:17:03.59 bitrate=6058.4kbits/s speed= 107x    frame=712827 fps=6417 q=-1.0 size= 8785408kB time=03:17:51.20 bitrate=6062.6kbits/s speed= 107x    frame=715853 fps=6415 q=-1.0 size= 8827392kB time=03:18:41.58 bitrate=6065.8kbits/s speed= 107x    frame=721701 fps=6439 q=-1.0 size= 8866560kB time=03:20:18.96 bitrate=6043.4kbits/s speed= 107x    frame=725935 fps=6448 q=-1.0 size= 8905984kB time=03:21:29.46 bitrate=6034.8kbits/s speed= 107x    frame=730619 fps=6461 q=-1.0 size= 8946688kB time=03:22:47.46 bitrate=6023.5kbits/s speed= 108x    frame=734765 fps=6469 q=-1.0 size= 8985856kB time=03:23:56.53 bitrate=6015.8kbits/s speed= 108x    frame=740239 fps=6488 q=-1.0 size= 9025280kB time=03:25:27.69 bitrate=5997.5kbits/s speed= 108x    frame=744603 fps=6498 q=-1.0 size= 9066496kB time=03:26:40.33 bitrate=5989.6kbits/s speed= 108x    frame=747411 fps=6494 q=-1.0 size= 9104640kB time=03:27:27.09 bitrate=5992.2kbits/s speed= 108x    frame=750007 fps=6488 q=-1.0 size= 9142784kB time=03:28:10.29 bitrate=5996.5kbits/s speed= 108x    frame=758097 fps=6530 q=-1.0 size= 9181184kB time=03:30:25.01 bitrate=5957.4kbits/s speed= 109x    frame=764541 fps=6557 q=-1.0 size= 9219328kB time=03:32:12.37 bitrate=5931.7kbits/s speed= 109x    frame=767538 fps=6555 q=-1.0 size= 9261056kB time=03:33:02.29 bitrate=5935.3kbits/s speed= 109x    frame=770838 fps=6555 q=-1.0 size= 9302016kB time=03:33:57.21 bitrate=5936.0kbits/s speed= 109x    frame=774108 fps=6555 q=-1.0 size= 9339392kB time=03:34:51.70 bitrate=5934.7kbits/s speed= 109x    frame=777736 fps=6558 q=-1.0 size= 9381888kB time=03:35:52.08 bitrate=5933.9kbits/s speed= 109x    frame=781604 fps=6563 q=-1.0 size= 9422336kB time=03:36:56.52 bitrate=5930.0kbits/s speed= 109x    frame=785475 fps=6568 q=-1.0 size= 9463808kB time=03:38:00.94 bitrate=5926.8kbits/s speed= 109x    frame=788687 fps=6567 q=-1.0 size= 9507584kB time=03:38:54.48 bitrate=5929.9kbits/s speed= 109x    frame=792036 fps=6568 q=-1.0 size= 9544704kB time=03:39:50.25 bitrate=5927.9kbits/s speed= 109x    frame=797143 fps=6583 q=-1.0 size= 9585408kB time=03:41:15.28 bitrate=5915.0kbits/s speed= 110x    frame=800689 fps=6585 q=-1.0 size= 9627904kB time=03:42:14.33 bitrate=5914.9kbits/s speed= 110x    frame=804646 fps=6590 q=-1.0 size= 9664512kB time=03:43:20.27 bitrate=5908.2kbits/s speed= 110x    frame=808570 fps=6595 q=-1.0 size= 9705728kB time=03:44:25.59 bitrate=5904.6kbits/s speed= 110x    frame=811282 fps=6591 q=-1.0 size= 9746432kB time=03:45:10.76 bitrate=5909.6kbits/s speed= 110x    frame=815401 fps=6597 q=-1.0 size= 9783808kB time=03:46:19.38 bitrate=5902.3kbits/s speed= 110x    frame=818932 fps=6599 q=-1.0 size= 9825792kB time=03:47:18.21 bitrate=5902.0kbits/s speed= 110x    frame=821921 fps=6597 q=-1.0 size= 9859840kB time=03:48:07.99 bitrate=5900.9kbits/s speed= 110x    frame=825684 fps=6600 q=-1.0 size= 9898496kB time=03:49:10.66 bitrate=5897.1kbits/s speed= 110x    frame=833473 fps=6636 q=-1.0 size= 9934080kB time=03:51:20.41 bitrate=5862.9kbits/s speed= 111x    frame=836983 fps=6638 q=-1.0 size= 9973760kB time=03:52:18.85 bitrate=5861.7kbits/s speed= 111x    frame=839726 fps=6633 q=-1.0 size=10016000kB time=03:53:04.54 bitrate=5867.3kbits/s speed= 110x    frame=842408 fps=6628 q=-1.0 size=10058240kB time=03:53:49.18 bitrate=5873.3kbits/s speed= 110x    frame=845412 fps=6626 q=-1.0 size=10096384kB time=03:54:39.21 bitrate=5874.6kbits/s speed= 110x    frame=848188 fps=6621 q=-1.0 size=10139392kB time=03:55:25.43 bitrate=5880.3kbits/s speed= 110x    frame=850917 fps=6617 q=-1.0 size=10181888kB time=03:56:10.86 bitrate=5886.0kbits/s speed= 110x    frame=854473 fps=6619 q=-1.0 size=10220544kB time=03:57:10.08 bitrate=5883.8kbits/s speed= 110x    frame=857277 fps=6615 q=-1.0 size=10261248kB time=03:57:56.76 bitrate=5887.9kbits/s speed= 110x    frame=860145 fps=6611 q=-1.0 size=10303488kB time=03:58:44.51 bitrate=5892.4kbits/s speed= 110x    frame=863160 fps=6609 q=-1.0 size=10338816kB time=03:59:34.73 bitrate=5892.0kbits/s speed= 110x    frame=866094 fps=6606 q=-1.0 size=10381312kB time=04:00:23.61 bitrate=5896.1kbits/s speed= 110x    frame=868810 fps=6602 q=-1.0 size=10420480kB time=04:01:08.85 bitrate=5899.9kbits/s speed= 110x    frame=871569 fps=6598 q=-1.0 size=10459904kB time=04:01:54.79 bitrate=5903.5kbits/s speed= 110x    frame=874563 fps=6595 q=-1.0 size=10501888kB time=04:02:44.66 bitrate=5906.9kbits/s speed= 110x    frame=878275 fps=6599 q=-1.0 size=10539008kB time=04:03:46.48 bitrate=5902.7kbits/s speed= 110x    frame=881062 fps=6595 q=-1.0 size=10576640kB time=04:04:32.87 bitrate=5905.0kbits/s speed= 110x    frame=884980 fps=6599 q=-1.0 size=10617344kB time=04:05:38.15 bitrate=5901.5kbits/s speed= 110x    frame=888425 fps=6600 q=-1.0 size=10656256kB time=04:06:35.50 bitrate=5900.2kbits/s speed= 110x    frame=893158 fps=6611 q=-1.0 size=10697216kB time=04:07:54.37 bitrate=5891.4kbits/s speed= 110x    frame=896918 fps=6614 q=-1.0 size=10736640kB time=04:08:56.98 bitrate=5888.4kbits/s speed= 110x    frame=900534 fps=6617 q=-1.0 size=10778624kB time=04:09:57.20 bitrate=5887.7kbits/s speed= 110x    frame=904009 fps=6618 q=-1.0 size=10820864kB time=04:10:55.06 bitrate=5888.0kbits/s speed= 110x    frame=907258 fps=6617 q=-1.0 size=10860800kB time=04:11:49.16 bitrate=5888.6kbits/s speed= 110x    frame=910552 fps=6617 q=-1.0 size=10901248kB time=04:12:44.04 bitrate=5889.1kbits/s speed= 110x    frame=914155 fps=6619 q=-1.0 size=10942208kB time=04:13:44.06 bitrate=5888.0kbits/s speed= 110x    frame=918440 fps=6626 q=-1.0 size=10981888kB time=04:14:55.38 bitrate=5881.7kbits/s speed= 110x    frame=925622 fps=6654 q=-1.0 size=11019264kB time=04:16:55.03 bitrate=5856.0kbits/s speed= 111x    frame=930675 fps=6666 q=-1.0 size=11058688kB time=04:18:19.19 bitrate=5845.0kbits/s speed= 111x    frame=935034 fps=6674 q=-1.0 size=11092224kB time=04:19:31.76 bitrate=5835.4kbits/s speed= 111x    frame=940014 fps=6685 q=-1.0 size=11130880kB time=04:20:54.72 bitrate=5824.7kbits/s speed= 111x    frame=945239 fps=6699 q=-1.0 size=11169280kB time=04:22:21.76 bitrate=5812.5kbits/s speed= 112x    frame=948557 fps=6699 q=-1.0 size=11207936kB time=04:23:17.05 bitrate=5812.2kbits/s speed= 112x    frame=951438 fps=6695 q=-1.0 size=11247104kB time=04:24:05.00 bitrate=5814.8kbits/s speed= 111x    frame=954966 fps=6696 q=-1.0 size=11286272kB time=04:25:03.77 bitrate=5813.5kbits/s speed= 112x    frame=958518 fps=6698 q=-1.0 size=11328256kB time=04:26:02.91 bitrate=5813.5kbits/s speed= 112x    frame=961376 fps=6694 q=-1.0 size=11369984kB time=04:26:50.52 bitrate=5817.6kbits/s speed= 111x    frame=964138 fps=6690 q=-1.0 size=11406848kB time=04:27:36.53 bitrate=5819.7kbits/s speed= 111x    frame=966996 fps=6687 q=-1.0 size=11445248kB time=04:28:24.13 bitrate=5822.1kbits/s speed= 111x    frame=970094 fps=6685 q=-1.0 size=11485952kB time=04:29:15.72 bitrate=5824.1kbits/s speed= 111x    frame=973334 fps=6685 q=-1.0 size=11526656kB time=04:30:09.67 bitrate=5825.3kbits/s speed= 111x    frame=976320 fps=6682 q=-1.0 size=11562752kB time=04:30:59.43 bitrate=5825.7kbits/s speed= 111x    frame=979314 fps=6680 q=-1.0 size=11603968kB time=04:31:49.29 bitrate=5828.6kbits/s speed= 111x    frame=982226 fps=6677 q=-1.0 size=11643648kB time=04:32:37.76 bitrate=5831.2kbits/s speed= 111x    frame=985281 fps=6675 q=-1.0 size=11680768kB time=04:33:28.64 bitrate=5831.6kbits/s speed= 111x    frame=988563 fps=6674 q=-1.0 size=11721728kB time=04:34:23.31 bitrate=5832.6kbits/s speed= 111x    frame=992434 fps=6678 q=-1.0 size=11758080kB time=04:35:27.78 bitrate=5827.9kbits/s speed= 111x    frame=995462 fps=6676 q=-1.0 size=11796736kB time=04:36:18.21 bitrate=5829.3kbits/s speed= 111x    frame=998313 fps=6672 q=-1.0 size=11836928kB time=04:37:05.70 bitrate=5832.4kbits/s speed= 111x    frame=1002374 fps=6677 q=-1.0 size=11874048kB time=04:38:13.34 bitrate=5827.0kbits/s speed= 111x    frame=1005313 fps=6675 q=-1.0 size=11912960kB time=04:39:02.29 bitrate=5829.0kbits/s speed= 111x    frame=1008234 fps=6672 q=-1.0 size=11953152kB time=04:39:50.93 bitrate=5831.7kbits/s speed= 111x    frame=1011150 fps=6669 q=-1.0 size=11991808kB time=04:40:39.49 bitrate=5833.7kbits/s speed= 111x    frame=1013824 fps=6665 q=-1.0 size=12032768kB time=04:41:23.99 bitrate=5838.2kbits/s speed= 111x    frame=1016463 fps=6660 q=-1.0 size=12069888kB time=04:42:07.97 bitrate=5841.0kbits/s speed= 111x    frame=1019255 fps=6657 q=-1.0 size=12108800kB time=04:42:54.45 bitrate=5843.8kbits/s speed= 111x    frame=1022248 fps=6654 q=-1.0 size=12149504kB time=04:43:44.29 bitrate=5846.3kbits/s speed= 111x    frame=1024704 fps=6649 q=-1.0 size=12186880kB time=04:44:25.18 bitrate=5850.2kbits/s speed= 111x    frame=1030143 fps=6662 q=-1.0 size=12224000kB time=04:45:55.77 bitrate=5837.0kbits/s speed= 111x    frame=1036105 fps=6679 q=-1.0 size=12264448kB time=04:47:35.08 bitrate=5822.7kbits/s speed= 111x    frame=1041015 fps=6689 q=-1.0 size=12301824kB time=04:48:56.80 bitrate=5812.9kbits/s speed= 111x    frame=1046071 fps=6700 q=-1.0 size=12341248kB time=04:50:21.02 bitrate=5803.3kbits/s speed= 112x    frame=1048746 fps=6696 q=-1.0 size=12382208kB time=04:51:05.56 bitrate=5807.7kbits/s speed= 112x    frame=1051251 fps=6691 q=-1.0 size=12422912kB time=04:51:47.29 bitrate=5812.9kbits/s speed= 111x    frame=1054486 fps=6690 q=-1.0 size=12464640kB time=04:52:41.14 bitrate=5814.6kbits/s speed= 111x    frame=1057210 fps=6686 q=-1.0 size=12506624kB time=04:53:26.51 bitrate=5819.1kbits/s speed= 111x    frame=1059817 fps=6681 q=-1.0 size=12548864kB time=04:54:09.91 bitrate=5824.4kbits/s speed= 111x    frame=1062285 fps=6676 q=-1.0 size=12589824kB time=04:54:51.00 bitrate=5829.8kbits/s speed= 111x    frame=1065336 fps=6674 q=-1.0 size=12626432kB time=04:55:41.82 bitrate=5830.1kbits/s speed= 111x    frame=1070685 fps=6687 q=-1.0 size=12666880kB time=04:57:10.92 bitrate=5819.5kbits/s speed= 111x    frame=1074033 fps=6687 q=-1.0 size=12707840kB time=04:58:06.64 bitrate=5820.1kbits/s speed= 111x    frame=1076491 fps=6681 q=-1.0 size=12747520kB time=04:58:47.59 bitrate=5825.0kbits/s speed= 111x    frame=1079022 fps=6676 q=-1.0 size=12789760kB time=04:59:29.75 bitrate=5830.6kbits/s speed= 111x    frame=1081519 fps=6671 q=-1.0 size=12830208kB time=05:00:11.33 bitrate=5835.5kbits/s speed= 111x    frame=1083816 fps=6664 q=-1.0 size=12868096kB time=05:00:49.57 bitrate=5840.3kbits/s speed= 111x    frame=1086134 fps=6658 q=-1.0 size=12906496kB time=05:01:28.16 bitrate=5845.3kbits/s speed= 111x    frame=1089800 fps=6660 q=-1.0 size=12945152kB time=05:02:29.22 bitrate=5843.0kbits/s speed= 111x    frame=1094865 fps=6671 q=-1.0 size=12984576kB time=05:03:53.60 bitrate=5833.7kbits/s speed= 111x    frame=1097370 fps=6666 q=-1.0 size=13026048kB time=05:04:35.31 bitrate=5839.0kbits/s speed= 111x    frame=1099671 fps=6659 q=-1.0 size=13063936kB time=05:05:13.65 bitrate=5843.7kbits/s speed= 111x    frame=1102193 fps=6655 q=-1.0 size=13105664kB time=05:05:55.62 bitrate=5849.0kbits/s speed= 111x    frame=1104718 fps=6650 q=-1.0 size=13147392kB time=05:06:37.70 bitrate=5854.2kbits/s speed= 111x    frame=1107283 fps=6645 q=-1.0 size=13189632kB time=05:07:20.41 bitrate=5859.4kbits/s speed= 111x    frame=1109769 fps=6640 q=-1.0 size=13230848kB time=05:08:01.80 bitrate=5864.5kbits/s speed= 111x    frame=1112178 fps=6635 q=-1.0 size=13270528kB time=05:08:41.91 bitrate=5869.4kbits/s speed= 110x    frame=1114611 fps=6629 q=-1.0 size=13310720kB time=05:09:22.42 bitrate=5874.3kbits/s speed= 110x    frame=1117176 fps=6625 q=-1.0 size=13352960kB time=05:10:05.11 bitrate=5879.4kbits/s speed= 110x    frame=1119453 fps=6619 q=-1.0 size=13390848kB time=05:10:43.06 bitrate=5884.1kbits/s speed= 110x    frame=1124250 fps=6628 q=-1.0 size=13428992kB time=05:12:02.91 bitrate=5875.7kbits/s speed= 110x    frame=1128675 fps=6634 q=-1.0 size=13469440kB time=05:13:16.59 bitrate=5870.3kbits/s speed= 110x    frame=1130839 fps=6627 q=-1.0 size=13505280kB time=05:13:52.65 bitrate=5874.7kbits/s speed= 110x    frame=1133498 fps=6623 q=-1.0 size=13548800kB time=05:14:36.91 bitrate=5879.8kbits/s speed= 110x    frame=1135848 fps=6618 q=-1.0 size=13587200kB time=05:15:16.08 bitrate=5884.2kbits/s speed= 110x    frame=1138086 fps=6612 q=-1.0 size=13624320kB time=05:15:53.36 bitrate=5888.7kbits/s speed= 110x    frame=1140552 fps=6607 q=-1.0 size=13665024kB time=05:16:34.39 bitrate=5893.5kbits/s speed= 110x    frame=1142885 fps=6601 q=-1.0 size=13703424kB time=05:17:13.27 bitrate=5898.0kbits/s speed= 110x    frame=1145350 fps=6596 q=-1.0 size=13744128kB time=05:17:54.31 bitrate=5902.8kbits/s speed= 110x    frame=1149284 fps=6600 q=-1.0 size=13785088kB time=05:18:59.81 bitrate=5900.1kbits/s speed= 110x    frame=1154052 fps=6608 q=-1.0 size=13818880kB time=05:20:19.24 bitrate=5890.2kbits/s speed= 110x    frame=1156795 fps=6605 q=-1.0 size=13861888kB time=05:21:04.93 bitrate=5894.5kbits/s speed= 110x    frame=1159319 fps=6601 q=-1.0 size=13903872kB time=05:21:46.95 bitrate=5899.5kbits/s speed= 110x    frame=1161699 fps=6595 q=-1.0 size=13942272kB time=05:22:26.57 bitrate=5903.6kbits/s speed= 110x    frame=1164299 fps=6591 q=-1.0 size=13985280kB time=05:23:09.87 bitrate=5908.6kbits/s speed= 110x    frame=1166774 fps=6587 q=-1.0 size=14025472kB time=05:23:51.04 bitrate=5913.0kbits/s speed= 110x    frame=1169128 fps=6581 q=-1.0 size=14063872kB time=05:24:30.24 bitrate=5917.3kbits/s speed= 110x    frame=1171721 fps=6578 q=-1.0 size=14106880kB time=05:25:13.44 bitrate=5922.3kbits/s speed= 110x    frame=1174115 fps=6572 q=-1.0 size=14145792kB time=05:25:53.29 bitrate=5926.5kbits/s speed= 109x    frame=1176721 fps=6569 q=-1.0 size=14188032kB time=05:26:36.68 bitrate=5931.0kbits/s speed= 109x    frame=1179281 fps=6565 q=-1.0 size=14229504kB time=05:27:19.32 bitrate=5935.4kbits/s speed= 109x    frame=1183240 fps=6568 q=-1.0 size=14267648kB time=05:28:25.26 bitrate=5931.4kbits/s speed= 109x    frame=1186598 fps=6568 q=-1.0 size=14306816kB time=05:29:21.19 bitrate=5930.9kbits/s speed= 109x    frame=1191697 fps=6578 q=-1.0 size=14346496kB time=05:30:46.05 bitrate=5921.9kbits/s speed= 110x    frame=1195190 fps=6580 q=-1.0 size=14384640kB time=05:31:44.22 bitrate=5920.3kbits/s speed= 110x    frame=1197866 fps=6576 q=-1.0 size=14428160kB time=05:32:28.80 bitrate=5924.9kbits/s speed= 110x    frame=1200280 fps=6571 q=-1.0 size=14467840kB time=05:33:09.01 bitrate=5929.3kbits/s speed= 109x    frame=1202775 fps=6567 q=-1.0 size=14508544kB time=05:33:50.53 bitrate=5933.6kbits/s speed= 109x    frame=1207693 fps=6576 q=-1.0 size=14549760kB time=05:35:12.45 bitrate=5926.3kbits/s speed= 110x    frame=1211807 fps=6580 q=-1.0 size=14585600kB time=05:36:20.93 bitrate=5920.7kbits/s speed= 110x    frame=1214358 fps=6576 q=-1.0 size=14627328kB time=05:37:03.40 bitrate=5925.2kbits/s speed= 110x    frame=1216905 fps=6572 q=-1.0 size=14669824kB time=05:37:45.83 bitrate=5929.9kbits/s speed= 109x    frame=1219072 fps=6566 q=-1.0 size=14705152kB time=05:38:21.89 bitrate=5933.7kbits/s speed= 109x    frame=1221515 fps=6562 q=-1.0 size=14744832kB time=05:39:02.59 bitrate=5937.8kbits/s speed= 109x    frame=1223971 fps=6557 q=-1.0 size=14785536kB time=05:39:43.48 bitrate=5942.2kbits/s speed= 109x    frame=1226450 fps=6553 q=-1.0 size=14826496kB time=05:40:24.77 bitrate=5946.6kbits/s speed= 109x    frame=1228786 fps=6548 q=-1.0 size=14865152kB time=05:41:03.68 bitrate=5950.8kbits/s speed= 109x    frame=1231313 fps=6544 q=-1.0 size=14906880kB time=05:41:45.72 bitrate=5955.3kbits/s speed= 109x    frame=1233937 fps=6541 q=-1.0 size=14949632kB time=05:42:29.41 bitrate=5959.7kbits/s speed= 109x    frame=1237087 fps=6540 q=-1.0 size=14986752kB time=05:43:21.85 bitrate=5959.2kbits/s speed= 109x    frame=1242176 fps=6550 q=-1.0 size=15026944kB time=05:44:46.64 bitrate=5950.7kbits/s speed= 109x    frame=1245265 fps=6549 q=-1.0 size=15067136kB time=05:45:38.08 bitrate=5951.9kbits/s speed= 109x    frame=1247581 fps=6544 q=-1.0 size=15104768kB time=05:46:16.68 bitrate=5955.6kbits/s speed= 109x    frame=1250162 fps=6540 q=-1.0 size=15147264kB time=05:46:59.66 bitrate=5960.1kbits/s speed= 109x    frame=1252684 fps=6536 q=-1.0 size=15188480kB time=05:47:41.65 bitrate=5964.2kbits/s speed= 109x    frame=1255273 fps=6532 q=-1.0 size=15231488kB time=05:48:24.78 bitrate=5968.8kbits/s speed= 109x    frame=1257773 fps=6528 q=-1.0 size=15272704kB time=05:49:06.42 bitrate=5973.0kbits/s speed= 109x    frame=1260733 fps=6527 q=-1.0 size=15309824kB time=05:49:55.72 bitrate=5973.5kbits/s speed= 109x    frame=1265661 fps=6535 q=-1.0 size=15348736kB time=05:51:17.76 bitrate=5965.4kbits/s speed= 109x    frame=1269000 fps=6536 q=-1.0 size=15391488kB time=05:52:13.32 bitrate=5966.3kbits/s speed= 109x    frame=1271119 fps=6530 q=-1.0 size=15425792kB time=05:52:48.59 bitrate=5969.6kbits/s speed= 109x    frame=1273882 fps=6527 q=-1.0 size=15468800kB time=05:53:34.59 bitrate=5973.3kbits/s speed= 109x    frame=1276443 fps=6524 q=-1.0 size=15509248kB time=05:54:17.21 bitrate=5976.9kbits/s speed= 109x    frame=1279012 fps=6520 q=-1.0 size=15550464kB time=05:55:00.01 bitrate=5980.7kbits/s speed= 109x    frame=1281568 fps=6517 q=-1.0 size=15592704kB time=05:55:42.52 bitrate=5985.0kbits/s speed= 109x    frame=1283924 fps=6512 q=-1.0 size=15631616kB time=05:56:21.77 bitrate=5988.9kbits/s speed= 108x    frame=1287506 fps=6514 q=-1.0 size=15672320kB time=05:57:21.43 bitrate=5987.8kbits/s speed= 108x    frame=1292555 fps=6523 q=-1.0 size=15712768kB time=05:58:45.53 bitrate=5979.8kbits/s speed= 109x    frame=1295284 fps=6520 q=-1.0 size=15749376kB time=05:59:30.99 bitrate=5981.1kbits/s speed= 109x    frame=1297911 fps=6517 q=-1.0 size=15791360kB time=06:00:14.73 bitrate=5984.9kbits/s speed= 109x    frame=1300344 fps=6513 q=-1.0 size=15831552kB time=06:00:55.24 bitrate=5988.9kbits/s speed= 108x    frame=1302546 fps=6507 q=-1.0 size=15868160kB time=06:01:31.89 bitrate=5992.7kbits/s speed= 108x    frame=1305014 fps=6503 q=-1.0 size=15908864kB time=06:02:12.98 bitrate=5996.7kbits/s speed= 108x    frame=1307374 fps=6499 q=-1.0 size=15947776kB time=06:02:52.29 bitrate=6000.5kbits/s speed= 108x    frame=1309702 fps=6494 q=-1.0 size=15986432kB time=06:03:31.05 bitrate=6004.3kbits/s speed= 108x    frame=1314344 fps=6501 q=-1.0 size=16026624kB time=06:04:48.34 bitrate=5998.2kbits/s speed= 108x    frame=1318894 fps=6508 q=-1.0 size=16066304kB time=06:06:04.12 bitrate=5992.3kbits/s speed= 108x    frame=1321439 fps=6504 q=-1.0 size=16108288kB time=06:06:46.49 bitrate=5996.4kbits/s speed= 108x    frame=1323935 fps=6500 q=-1.0 size=16149760kB time=06:07:28.07 bitrate=6000.5kbits/s speed= 108x    frame=1326243 fps=6496 q=-1.0 size=16187648kB time=06:08:06.50 bitrate=6004.1kbits/s speed= 108x    frame=1328759 fps=6492 q=-1.0 size=16229376kB time=06:08:48.43 bitrate=6008.2kbits/s speed= 108x    frame=1331237 fps=6488 q=-1.0 size=16269056kB time=06:09:29.69 bitrate=6011.6kbits/s speed= 108x    frame=1334496 fps=6489 q=-1.0 size=16305920kB time=06:10:23.94 bitrate=6010.5kbits/s speed= 108x    frame=1339378 fps=6496 q=-1.0 size=16346368kB time=06:11:45.22 bitrate=6003.5kbits/s speed= 108x    frame=1341682 fps=6492 q=-1.0 size=16384000kB time=06:12:23.58 bitrate=6007.0kbits/s speed= 108x    frame=1344051 fps=6488 q=-1.0 size=16423680kB time=06:13:03.04 bitrate=6010.9kbits/s speed= 108x    frame=1346607 fps=6484 q=-1.0 size=16465664kB time=06:13:45.59 bitrate=6014.9kbits/s speed= 108x    frame=1348879 fps=6480 q=-1.0 size=16503040kB time=06:14:23.43 bitrate=6018.4kbits/s speed= 108x    frame=1351424 fps=6476 q=-1.0 size=16545024kB time=06:15:05.82 bitrate=6022.3kbits/s speed= 108x    frame=1353938 fps=6473 q=-1.0 size=16586496kB time=06:15:47.67 bitrate=6026.2kbits/s speed= 108x    frame=1356310 fps=6469 q=-1.0 size=16625664kB time=06:16:27.12 bitrate=6029.9kbits/s speed= 108x    frame=1358895 fps=6466 q=-1.0 size=16668416kB time=06:17:10.22 bitrate=6033.9kbits/s speed= 108x    frame=1362908 fps=6469 q=-1.0 size=16706560kB time=06:18:17.04 bitrate=6029.9kbits/s speed= 108x    frame=1367706 fps=6477 q=-1.0 size=16745984kB time=06:19:36.93 bitrate=6022.9kbits/s speed= 108x    frame=1370218 fps=6473 q=-1.0 size=16787200kB time=06:20:18.79 bitrate=6026.6kbits/s speed= 108x    frame=1372550 fps=6469 q=-1.0 size=16825600kB time=06:20:57.62 bitrate=6030.2kbits/s speed= 108x    frame=1375044 fps=6465 q=-1.0 size=16866816kB time=06:21:39.13 bitrate=6034.0kbits/s speed= 108x    frame=1377670 fps=6463 q=-1.0 size=16909824kB time=06:22:22.86 bitrate=6037.8kbits/s speed= 108x    frame=1380018 fps=6458 q=-1.0 size=16947456kB time=06:23:01.93 bitrate=6041.0kbits/s speed= 108x    frame=1385125 fps=6467 q=-1.0 size=16988672kB time=06:24:27.01 bitrate=6033.3kbits/s speed= 108x    frame=1387793 fps=6465 q=-1.0 size=17030656kB time=06:25:11.42 bitrate=6036.6kbits/s speed= 108x    frame=1390464 fps=6462 q=-1.0 size=17074176kB time=06:25:55.88 bitrate=6040.4kbits/s speed= 108x    frame=1392916 fps=6458 q=-1.0 size=17115136kB time=06:26:36.72 bitrate=6044.3kbits/s speed= 108x    frame=1395428 fps=6455 q=-1.0 size=17156096kB time=06:27:18.50 bitrate=6047.8kbits/s speed= 107x    frame=1398043 fps=6452 q=-1.0 size=17198848kB time=06:28:02.08 bitrate=6051.6kbits/s speed= 107x    frame=1400698 fps=6449 q=-1.0 size=17241600kB time=06:28:46.26 bitrate=6055.1kbits/s speed= 107x    frame=1403002 fps=6445 q=-1.0 size=17279232kB time=06:29:24.64 bitrate=6058.4kbits/s speed= 107x    frame=1408548 fps=6456 q=-1.0 size=17320192kB time=06:30:57.04 bitrate=6048.8kbits/s speed= 108x    frame=1411764 fps=6456 q=-1.0 size=17362432kB time=06:31:50.62 bitrate=6049.7kbits/s speed= 108x    frame=1414106 fps=6452 q=-1.0 size=17400832kB time=06:32:29.58 bitrate=6053.1kbits/s speed= 107x    frame=1416617 fps=6448 q=-1.0 size=17442560kB time=06:33:11.42 bitrate=6056.8kbits/s speed= 107x    frame=1419127 fps=6445 q=-1.0 size=17483008kB time=06:33:53.20 bitrate=6060.2kbits/s speed= 107x    frame=1421400 fps=6441 q=-1.0 size=17520896kB time=06:34:31.08 bitrate=6063.6kbits/s speed= 107x    frame=1424224 fps=6439 q=-1.0 size=17564160kB time=06:35:18.07 bitrate=6066.5kbits/s speed= 107x    frame=1426543 fps=6435 q=-1.0 size=17602560kB time=06:35:56.68 bitrate=6069.9kbits/s speed= 107x    frame=1429146 fps=6432 q=-1.0 size=17644032kB time=06:36:40.02 bitrate=6073.1kbits/s speed= 107x    frame=1431730 fps=6429 q=-1.0 size=17686528kB time=06:37:23.03 bitrate=6076.7kbits/s speed= 107x    frame=1435245 fps=6431 q=-1.0 size=17722112kB time=06:38:21.55 bitrate=6074.1kbits/s speed= 107x    frame=1439278 fps=6434 q=-1.0 size=17764352kB time=06:39:28.72 bitrate=6071.5kbits/s speed= 107x    frame=1441846 fps=6431 q=-1.0 size=17806848kB time=06:40:11.49 bitrate=6075.2kbits/s speed= 107x    frame=1444058 fps=6427 q=-1.0 size=17843456kB time=06:40:48.34 bitrate=6078.3kbits/s speed= 107x    frame=1446641 fps=6424 q=-1.0 size=17885952kB time=06:41:31.36 bitrate=6081.9kbits/s speed= 107x    frame=1449035 fps=6420 q=-1.0 size=17925632kB time=06:42:11.25 bitrate=6085.3kbits/s speed= 107x    frame=1451615 fps=6418 q=-1.0 size=17967616kB time=06:42:54.17 bitrate=6088.8kbits/s speed= 107x    frame=1454171 fps=6415 q=-1.0 size=18009856kB time=06:43:36.73 bitrate=6092.3kbits/s speed= 107x    frame=1456387 fps=6410 q=-1.0 size=18046464kB time=06:44:13.63 bitrate=6095.4kbits/s speed= 107x    frame=1458959 fps=6408 q=-1.0 size=18087680kB time=06:44:56.46 bitrate=6098.6kbits/s speed= 107x    frame=1464073 fps=6416 q=-1.0 size=18127360kB time=06:46:21.61 bitrate=6090.6kbits/s speed= 107x    frame=1466295 fps=6412 q=-1.0 size=18163712kB time=06:46:58.60 bitrate=6093.6kbits/s speed= 107x    frame=1468801 fps=6409 q=-1.0 size=18205184kB time=06:47:40.30 bitrate=6097.1kbits/s speed= 107x    frame=1471419 fps=6406 q=-1.0 size=18245376kB time=06:48:23.87 bitrate=6099.7kbits/s speed= 107x    frame=1473953 fps=6403 q=-1.0 size=18286848kB time=06:49:06.04 bitrate=6103.1kbits/s speed= 107x    frame=1476558 fps=6401 q=-1.0 size=18329600kB time=06:49:49.42 bitrate=6106.5kbits/s speed= 107x    frame=1479086 fps=6398 q=-1.0 size=18371584kB time=06:50:31.53 bitrate=6110.1kbits/s speed= 107x    frame=1481668 fps=6395 q=-1.0 size=18414080kB time=06:51:14.52 bitrate=6113.5kbits/s speed= 106x    frame=1485233 fps=6397 q=-1.0 size=18451968kB time=06:52:13.86 bitrate=6111.4kbits/s speed= 107x    frame=1488735 fps=6398 q=-1.0 size=18488576kB time=06:53:12.16 bitrate=6109.1kbits/s speed= 107x    frame=1491322 fps=6395 q=-1.0 size=18531328kB time=06:53:55.25 bitrate=6112.6kbits/s speed= 106x    frame=1493818 fps=6392 q=-1.0 size=18572544kB time=06:54:36.82 bitrate=6116.0kbits/s speed= 106x    frame=1496018 fps=6388 q=-1.0 size=18608896kB time=06:55:13.44 bitrate=6118.9kbits/s speed= 106x    frame=1498467 fps=6385 q=-1.0 size=18649344kB time=06:55:54.25 bitrate=6122.2kbits/s speed= 106x    frame=1501796 fps=6385 q=-1.0 size=18687232kB time=06:56:49.68 bitrate=6121.1kbits/s speed= 106x    frame=1505419 fps=6387 q=-1.0 size=18723584kB time=06:57:50.03 bitrate=6118.2kbits/s speed= 106x    frame=1508063 fps=6385 q=-1.0 size=18765824kB time=06:58:34.07 bitrate=6121.3kbits/s speed= 106x    frame=1510285 fps=6381 q=-1.0 size=18802688kB time=06:59:11.05 bitrate=6124.3kbits/s speed= 106x    frame=1512745 fps=6378 q=-1.0 size=18843392kB time=06:59:52.03 bitrate=6127.5kbits/s speed= 106x    frame=1515309 fps=6375 q=-1.0 size=18885120kB time=07:00:34.71 bitrate=6130.7kbits/s speed= 106x    frame=1517618 fps=6371 q=-1.0 size=18923264kB time=07:01:13.19 bitrate=6133.7kbits/s speed= 106x    frame=1520072 fps=6368 q=-1.0 size=18963456kB time=07:01:54.02 bitrate=6136.9kbits/s speed= 106x    frame=1524201 fps=6372 q=-1.0 size=19001600kB time=07:03:02.82 bitrate=6132.5kbits/s speed= 106x    frame=1528874 fps=6378 q=-1.0 size=19038208kB time=07:04:20.62 bitrate=6125.6kbits/s speed= 106x    frame=1531429 fps=6376 q=-1.0 size=19079936kB time=07:05:03.17 bitrate=6128.8kbits/s speed= 106x    frame=1533752 fps=6372 q=-1.0 size=19117824kB time=07:05:41.86 bitrate=6131.6kbits/s speed= 106x    frame=1536276 fps=6369 q=-1.0 size=19159808kB time=07:06:23.89 bitrate=6135.0kbits/s speed= 106x    frame=1538803 fps=6367 q=-1.0 size=19201024kB time=07:07:05.95 bitrate=6138.1kbits/s speed= 106x    frame=1541032 fps=6363 q=-1.0 size=19237888kB time=07:07:43.03 bitrate=6141.0kbits/s speed= 106x    frame=1543501 fps=6360 q=-1.0 size=19278080kB time=07:08:24.14 bitrate=6144.0kbits/s speed= 106x    frame=1546245 fps=6358 q=-1.0 size=19319552kB time=07:09:09.84 bitrate=6146.3kbits/s speed= 106x    frame=1548490 fps=6354 q=-1.0 size=19355136kB time=07:09:47.21 bitrate=6148.7kbits/s speed= 106x    frame=1553693 fps=6362 q=-1.0 size=19394304kB time=07:11:13.83 bitrate=6140.5kbits/s speed= 106x    frame=1556160 fps=6359 q=-1.0 size=19433984kB time=07:11:54.89 bitrate=6143.3kbits/s speed= 106x    frame=1558568 fps=6356 q=-1.0 size=19471360kB time=07:12:34.99 bitrate=6145.6kbits/s speed= 106x    frame=1561079 fps=6353 q=-1.0 size=19511296kB time=07:13:16.84 bitrate=6148.3kbits/s speed= 106x    frame=1563383 fps=6350 q=-1.0 size=19549184kB time=07:13:55.20 bitrate=6151.2kbits/s speed= 106x    frame=1565699 fps=6346 q=-1.0 size=19587584kB time=07:14:33.74 bitrate=6154.1kbits/s speed= 106x    frame=1568148 fps=6343 q=-1.0 size=19627776kB time=07:15:14.56 bitrate=6157.1kbits/s speed= 106x    frame=1570354 fps=6340 q=-1.0 size=19664128kB time=07:15:51.29 bitrate=6159.9kbits/s speed= 106x    frame=1572854 fps=6337 q=-1.0 size=19704832kB time=07:16:32.91 bitrate=6162.8kbits/s speed= 106x    frame=1575290 fps=6334 q=-1.0 size=19745024kB time=07:17:13.48 bitrate=6165.8kbits/s speed= 105x    frame=1577658 fps=6331 q=-1.0 size=19784192kB time=07:17:52.90 bitrate=6168.8kbits/s speed= 105x    frame=1580177 fps=6328 q=-1.0 size=19825664kB time=07:18:34.85 bitrate=6171.9kbits/s speed= 105x    frame=1582524 fps=6325 q=-1.0 size=19864576kB time=07:19:13.92 bitrate=6174.8kbits/s speed= 105x    frame=1584954 fps=6322 q=-1.0 size=19903232kB time=07:19:54.34 bitrate=6177.4kbits/s speed= 105x    frame=1587409 fps=6319 q=-1.0 size=19943936kB time=07:20:35.25 bitrate=6180.4kbits/s speed= 105x    frame=1589635 fps=6315 q=-1.0 size=19980800kB time=07:21:12.33 bitrate=6183.2kbits/s speed= 105x    frame=1592032 fps=6312 q=-1.0 size=20020480kB time=07:21:52.27 bitrate=6186.1kbits/s speed= 105x    frame=1594697 fps=6310 q=-1.0 size=20061440kB time=07:22:36.63 bitrate=6188.4kbits/s speed= 105x    frame=1596870 fps=6306 q=-1.0 size=20097280kB time=07:23:12.81 bitrate=6191.0kbits/s speed= 105x    frame=1599327 fps=6304 q=-1.0 size=20137728kB time=07:23:53.70 bitrate=6194.0kbits/s speed= 105x    frame=1603222 fps=6307 q=-1.0 size=20177152kB time=07:24:58.58 bitrate=6191.0kbits/s speed= 105x    frame=1607930 fps=6313 q=-1.0 size=20214272kB time=07:26:16.93 bitrate=6184.3kbits/s speed= 105x    frame=1610612 fps=6311 q=-1.0 size=20256000kB time=07:27:01.62 bitrate=6186.7kbits/s speed= 105x    frame=1612864 fps=6307 q=-1.0 size=20292608kB time=07:27:39.09 bitrate=6189.2kbits/s speed= 105x    frame=1615334 fps=6305 q=-1.0 size=20333824kB time=07:28:20.22 bitrate=6192.3kbits/s speed= 105x    frame=1617956 fps=6303 q=-1.0 size=20375552kB time=07:29:03.86 bitrate=6195.0kbits/s speed= 105x    frame=1620171 fps=6299 q=-1.0 size=20411904kB time=07:29:40.72 bitrate=6197.5kbits/s speed= 105x    frame=1622664 fps=6296 q=-1.0 size=20453120kB time=07:30:22.21 bitrate=6200.5kbits/s speed= 105x    frame=1625239 fps=6294 q=-1.0 size=20494848kB time=07:31:05.08 bitrate=6203.3kbits/s speed= 105x    frame=1627435 fps=6290 q=-1.0 size=20530688kB time=07:31:41.67 bitrate=6205.8kbits/s speed= 105x    frame=1629901 fps=6288 q=-1.0 size=20571392kB time=07:32:22.73 bitrate=6208.7kbits/s speed= 105x    frame=1631973 fps=6284 q=-1.0 size=20605440kB time=07:32:57.24 bitrate=6211.1kbits/s speed= 105x    frame=1635051 fps=6283 q=-1.0 size=20643840kB time=07:33:48.51 bitrate=6210.9kbits/s speed= 105x    frame=1639904 fps=6290 q=-1.0 size=20681216kB time=07:35:09.29 bitrate=6203.8kbits/s speed= 105x    frame=1642285 fps=6287 q=-1.0 size=20720128kB time=07:35:48.94 bitrate=6206.4kbits/s speed= 105x    frame=1644591 fps=6284 q=-1.0 size=20758528kB time=07:36:27.37 bitrate=6209.2kbits/s speed= 105x    frame=1647090 fps=6281 q=-1.0 size=20800000kB time=07:37:08.98 bitrate=6212.2kbits/s speed= 105x    frame=1649530 fps=6279 q=-1.0 size=20840192kB time=07:37:49.59 bitrate=6215.0kbits/s speed= 105x    frame=1652189 fps=6277 q=-1.0 size=20883456kB time=07:38:33.86 bitrate=6217.9kbits/s speed= 105x    frame=1654771 fps=6275 q=-1.0 size=20926208kB time=07:39:16.87 bitrate=6220.9kbits/s speed= 104x    frame=1657133 fps=6272 q=-1.0 size=20963840kB time=07:39:56.21 bitrate=6223.2kbits/s speed= 104x    frame=1659768 fps=6270 q=-1.0 size=21006848kB time=07:40:40.11 bitrate=6226.0kbits/s speed= 104x    frame=1662318 fps=6268 q=-1.0 size=21049088kB time=07:41:22.56 bitrate=6229.0kbits/s speed= 104x    frame=1664554 fps=6264 q=-1.0 size=21085696kB time=07:41:59.80 bitrate=6231.4kbits/s speed= 104x    frame=1668933 fps=6269 q=-1.0 size=21125888kB time=07:43:12.72 bitrate=6226.9kbits/s speed= 104x    frame=1672740 fps=6272 q=-1.0 size=21166848kB time=07:44:16.09 bitrate=6224.8kbits/s speed= 104x    frame=1675346 fps=6270 q=-1.0 size=21209600kB time=07:44:59.50 bitrate=6227.7kbits/s speed= 104x    frame=1677906 fps=6267 q=-1.0 size=21252096kB time=07:45:42.09 bitrate=6230.6kbits/s speed= 104x    frame=1681101 fps=6268 q=-1.0 size=21292544kB time=07:46:35.31 bitrate=6230.6kbits/s speed= 104x    frame=1685677 fps=6273 q=-1.0 size=21333760kB time=07:47:51.48 bitrate=6225.8kbits/s speed= 104x    frame=1688587 fps=6272 q=-1.0 size=21377024kB time=07:48:39.97 bitrate=6227.6kbits/s speed= 104x    frame=1691597 fps=6272 q=-1.0 size=21419264kB time=07:49:30.06 bitrate=6228.8kbits/s speed= 104x    frame=1694200 fps=6270 q=-1.0 size=21461248kB time=07:50:13.42 bitrate=6231.4kbits/s speed= 104x    frame=1696772 fps=6268 q=-1.0 size=21501952kB time=07:50:56.27 bitrate=6233.8kbits/s speed= 104x    frame=1699159 fps=6265 q=-1.0 size=21541376kB time=07:51:36.01 bitrate=6236.5kbits/s speed= 104x    frame=1701789 fps=6263 q=-1.0 size=21584896kB time=07:52:19.82 bitrate=6239.4kbits/s speed= 104x    frame=1705073 fps=6264 q=-1.0 size=21623040kB time=07:53:14.48 bitrate=6238.4kbits/s speed= 104x    frame=1709071 fps=6267 q=-1.0 size=21662208kB time=07:54:21.09 bitrate=6235.1kbits/s speed= 104x    frame=1711670 fps=6265 q=-1.0 size=21704960kB time=07:55:04.36 bitrate=6237.9kbits/s speed= 104x    frame=1714047 fps=6262 q=-1.0 size=21743616kB time=07:55:43.92 bitrate=6240.3kbits/s speed= 104x    frame=1716831 fps=6261 q=-1.0 size=21785856kB time=07:56:30.29 bitrate=6242.3kbits/s speed= 104x    frame=1719523 fps=6259 q=-1.0 size=21828352kB time=07:57:15.08 bitrate=6244.7kbits/s speed= 104x    frame=1722036 fps=6257 q=-1.0 size=21867008kB time=07:57:56.95 bitrate=6246.6kbits/s speed= 104x    frame=1724804 fps=6256 q=-1.0 size=21908480kB time=07:58:43.00 bitrate=6248.4kbits/s speed= 104x    frame=1727346 fps=6253 q=-1.0 size=21948160kB time=07:59:25.32 bitrate=6250.6kbits/s speed= 104x    frame=1729786 fps=6251 q=-1.0 size=21987840kB time=08:00:05.95 bitrate=6253.0kbits/s speed= 104x    frame=1733399 fps=6253 q=-1.0 size=22030336kB time=08:01:06.15 bitrate=6252.0kbits/s speed= 104x    frame=1738130 fps=6258 q=-1.0 size=22066944kB time=08:02:24.89 bitrate=6245.4kbits/s speed= 104x    frame=1742807 fps=6264 q=-1.0 size=22108160kB time=08:03:42.78 bitrate=6240.3kbits/s speed= 104x    frame=1745381 fps=6262 q=-1.0 size=22150656kB time=08:04:25.65 bitrate=6243.0kbits/s speed= 104x    frame=1747616 fps=6259 q=-1.0 size=22188032kB time=08:05:02.84 bitrate=6245.6kbits/s speed= 104x    frame=1750244 fps=6257 q=-1.0 size=22231040kB time=08:05:46.60 bitrate=6248.3kbits/s speed= 104x    frame=1752782 fps=6255 q=-1.0 size=22272768kB time=08:06:28.86 bitrate=6251.0kbits/s speed= 104x    frame=1755212 fps=6252 q=-1.0 size=22312704kB time=08:07:09.31 bitrate=6253.5kbits/s speed= 104x    frame=1759613 fps=6257 q=-1.0 size=22354176kB time=08:08:22.62 bitrate=6249.5kbits/s speed= 104x    frame=1763299 fps=6259 q=-1.0 size=22393600kB time=08:09:23.94 bitrate=6247.4kbits/s speed= 104x    frame=1766040 fps=6257 q=-1.0 size=22436608kB time=08:10:09.61 bitrate=6249.7kbits/s speed= 104x    frame=1768707 fps=6256 q=-1.0 size=22479360kB time=08:10:53.99 bitrate=6252.2kbits/s speed= 104x    frame=1771107 fps=6253 q=-1.0 size=22517760kB time=08:11:33.95 bitrate=6254.3kbits/s speed= 104x    frame=1773751 fps=6252 q=-1.0 size=22561024kB time=08:12:18.02 bitrate=6257.0kbits/s speed= 104x    frame=1778573 fps=6257 q=-1.0 size=22604288kB time=08:13:38.27 bitrate=6252.0kbits/s speed= 104x    frame=1781592 fps=6257 q=-1.0 size=22641664kB time=08:14:28.56 bitrate=6251.8kbits/s speed= 104x    frame=1784301 fps=6256 q=-1.0 size=22685952kB time=08:15:13.65 bitrate=6254.5kbits/s speed= 104x    frame=1786758 fps=6253 q=-1.0 size=22726656kB time=08:15:54.58 bitrate=6257.1kbits/s speed= 104x    frame=1789283 fps=6251 q=-1.0 size=22768128kB time=08:16:36.56 bitrate=6259.7kbits/s speed= 104x    frame=1791936 fps=6249 q=-1.0 size=22811904kB time=08:17:20.76 bitrate=6262.4kbits/s speed= 104x    frame=1794545 fps=6248 q=-1.0 size=22855168kB time=08:18:04.16 bitrate=6265.2kbits/s speed= 104x    frame=1797174 fps=6246 q=-1.0 size=22898688kB time=08:18:47.92 bitrate=6267.9kbits/s speed= 104x    frame=1799918 fps=6245 q=-1.0 size=22943744kB time=08:19:33.61 bitrate=6270.7kbits/s speed= 104x    frame=1802514 fps=6243 q=-1.0 size=22986752kB time=08:20:16.87 bitrate=6273.4kbits/s speed= 104x    frame=1805073 fps=6241 q=-1.0 size=23029248kB time=08:20:59.46 bitrate=6276.1kbits/s speed= 104x    frame=1807616 fps=6239 q=-1.0 size=23071232kB time=08:21:41.82 bitrate=6278.7kbits/s speed= 104x    frame=1810107 fps=6237 q=-1.0 size=23112192kB time=08:22:23.26 bitrate=6281.2kbits/s speed= 104x    frame=1812606 fps=6235 q=-1.0 size=23153152kB time=08:23:04.85 bitrate=6283.6kbits/s speed= 104x    frame=1814940 fps=6232 q=-1.0 size=23191808kB time=08:23:43.72 bitrate=6286.0kbits/s speed= 104x    frame=1817860 fps=6231 q=-1.0 size=23228672kB time=08:24:32.31 bitrate=6285.9kbits/s speed= 104x    frame=1822752 fps=6237 q=-1.0 size=23267072kB time=08:25:53.77 bitrate=6279.4kbits/s speed= 104x    frame=1826510 fps=6239 q=-1.0 size=23303424kB time=08:26:56.30 bitrate=6276.3kbits/s speed= 104x    frame=1828955 fps=6237 q=-1.0 size=23343616kB time=08:27:37.01 bitrate=6278.7kbits/s speed= 104x    frame=1831488 fps=6235 q=-1.0 size=23385088kB time=08:28:19.20 bitrate=6281.2kbits/s speed= 104x    frame=1833687 fps=6232 q=-1.0 size=23421184kB time=08:28:55.78 bitrate=6283.3kbits/s speed= 104x    frame=1836159 fps=6230 q=-1.0 size=23461120kB time=08:29:36.95 bitrate=6285.6kbits/s speed= 104x    frame=1838369 fps=6227 q=-1.0 size=23497216kB time=08:30:13.77 bitrate=6287.7kbits/s speed= 104x    frame=1840508 fps=6223 q=-1.0 size=23532800kB time=08:30:49.38 bitrate=6289.9kbits/s speed= 104x    frame=1842982 fps=6221 q=-1.0 size=23574016kB time=08:31:30.59 bitrate=6292.4kbits/s speed= 104x    frame=1845389 fps=6219 q=-1.0 size=23612672kB time=08:32:10.63 bitrate=6294.5kbits/s speed= 104x    frame=1850441 fps=6225 q=-1.0 size=23650816kB time=08:33:34.81 bitrate=6287.5kbits/s speed= 104x    frame=1854423 fps=6228 q=-1.0 size=23691008kB time=08:34:41.11 bitrate=6284.6kbits/s speed= 104x    frame=1856790 fps=6226 q=-1.0 size=23729408kB time=08:35:20.53 bitrate=6286.8kbits/s speed= 104x    frame=1859424 fps=6224 q=-1.0 size=23771136kB time=08:36:04.38 bitrate=6288.9kbits/s speed= 104x    frame=1861946 fps=6222 q=-1.0 size=23812608kB time=08:36:46.34 bitrate=6291.4kbits/s speed= 104x    frame=1864128 fps=6219 q=-1.0 size=23848704kB time=08:37:22.69 bitrate=6293.5kbits/s speed= 104x    frame=1866696 fps=6217 q=-1.0 size=23890688kB time=08:38:05.42 bitrate=6296.0kbits/s speed= 104x    frame=1869056 fps=6215 q=-1.0 size=23929600kB time=08:38:44.71 bitrate=6298.3kbits/s speed= 103x    frame=1871574 fps=6213 q=-1.0 size=23970048kB time=08:39:26.60 bitrate=6300.4kbits/s speed= 103x    frame=1874523 fps=6212 q=-1.0 size=24018432kB time=08:40:15.73 bitrate=6303.2kbits/s speed= 103x    frame=1878427 fps=6215 q=-1.0 size=24061952kB time=08:41:20.77 bitrate=6301.5kbits/s speed= 103x    frame=1884310 fps=6224 q=-1.0 size=24108544kB time=08:42:58.74 bitrate=6294.0kbits/s speed= 104x    frame=1887021 fps=6223 q=-1.0 size=24153088kB time=08:43:43.87 bitrate=6296.6kbits/s speed= 104x    frame=1889524 fps=6221 q=-1.0 size=24194560kB time=08:44:25.55 bitrate=6299.0kbits/s speed= 104x    frame=1892127 fps=6219 q=-1.0 size=24237312kB time=08:45:08.84 bitrate=6301.5kbits/s speed= 104x    frame=1894618 fps=6217 q=-1.0 size=24278272kB time=08:45:50.32 bitrate=6303.8kbits/s speed= 104x    frame=1896943 fps=6214 q=-1.0 size=24316416kB time=08:46:29.06 bitrate=6306.0kbits/s speed= 103x    frame=1899336 fps=6212 q=-1.0 size=24356096kB time=08:47:08.86 bitrate=6308.3kbits/s speed= 103x    frame=1902123 fps=6211 q=-1.0 size=24397056kB time=08:47:55.30 bitrate=6309.7kbits/s speed= 103x    frame=1904649 fps=6209 q=-1.0 size=24438528kB time=08:48:37.36 bitrate=6312.0kbits/s speed= 103x    frame=1906849 fps=6206 q=-1.0 size=24474880kB time=08:49:13.97 bitrate=6314.1kbits/s speed= 103x    frame=1909364 fps=6204 q=-1.0 size=24516352kB time=08:49:55.86 bitrate=6316.5kbits/s speed= 103x    frame=1911812 fps=6202 q=-1.0 size=24556544kB time=08:50:36.62 bitrate=6318.7kbits/s speed= 103x    frame=1914980 fps=6202 q=-1.0 size=24591616kB time=08:51:29.34 bitrate=6317.3kbits/s speed= 103x    frame=1920206 fps=6209 q=-1.0 size=24630272kB time=08:52:56.41 bitrate=6310.0kbits/s speed= 103x    frame=1923168 fps=6209 q=-1.0 size=24667904kB time=08:53:45.74 bitrate=6309.9kbits/s speed= 103x    frame=1925448 fps=6206 q=-1.0 size=24705792kB time=08:54:23.65 bitrate=6312.1kbits/s speed= 103x    frame=1927964 fps=6204 q=-1.0 size=24746752kB time=08:55:05.57 bitrate=6314.3kbits/s speed= 103x    frame=1930527 fps=6202 q=-1.0 size=24787200kB time=08:55:48.23 bitrate=6316.3kbits/s speed= 103x    frame=1933032 fps=6201 q=-1.0 size=24828416kB time=08:56:29.92 bitrate=6318.6kbits/s speed= 103x    frame=1935483 fps=6198 q=-1.0 size=24869120kB time=08:57:10.74 bitrate=6320.9kbits/s speed= 103x    frame=1938059 fps=6197 q=-1.0 size=24909312kB time=08:57:53.62 bitrate=6322.7kbits/s speed= 103x    frame=1940622 fps=6195 q=-1.0 size=24951296kB time=08:58:36.28 bitrate=6325.0kbits/s speed= 103x    frame=1943171 fps=6193 q=-1.0 size=24990976kB time=08:59:18.65 bitrate=6326.8kbits/s speed= 103x    frame=1946993 fps=6196 q=-1.0 size=25028352kB time=09:00:22.26 bitrate=6323.8kbits/s speed= 103x    frame=1950998 fps=6198 q=-1.0 size=25069568kB time=09:01:28.96 bitrate=6321.2kbits/s speed= 103x    frame=1953463 fps=6196 q=-1.0 size=25110016kB time=09:02:10.01 bitrate=6323.4kbits/s speed= 103x    frame=1955965 fps=6195 q=-1.0 size=25151232kB time=09:02:51.70 bitrate=6325.7kbits/s speed= 103x    frame=1958563 fps=6193 q=-1.0 size=25193472kB time=09:03:34.92 bitrate=6327.9kbits/s speed= 103x    frame=1960840 fps=6190 q=-1.0 size=25231104kB time=09:04:12.83 bitrate=6330.0kbits/s speed= 103x    frame=1963371 fps=6189 q=-1.0 size=25272832kB time=09:04:54.98 bitrate=6332.3kbits/s speed= 103x    frame=1965880 fps=6187 q=-1.0 size=25314304kB time=09:05:36.75 bitrate=6334.6kbits/s speed= 103x    frame=1968155 fps=6184 q=-1.0 size=25351936kB time=09:06:14.57 bitrate=6336.7kbits/s speed= 103x    frame=1970605 fps=6182 q=-1.0 size=25392640kB time=09:06:55.33 bitrate=6339.0kbits/s speed= 103x    frame=1972977 fps=6180 q=-1.0 size=25431552kB time=09:07:34.85 bitrate=6341.1kbits/s speed= 103x    frame=1975334 fps=6178 q=-1.0 size=25470464kB time=09:08:14.08 bitrate=6343.2kbits/s speed= 103x    frame=1977883 fps=6176 q=-1.0 size=25512960kB time=09:08:56.50 bitrate=6345.6kbits/s speed= 103x    frame=1980174 fps=6173 q=-1.0 size=25550592kB time=09:09:34.62 bitrate=6347.6kbits/s speed= 103x    frame=1982756 fps=6172 q=-1.0 size=25593344kB time=09:10:17.62 bitrate=6350.0kbits/s speed= 103x    frame=1985325 fps=6170 q=-1.0 size=25635840kB time=09:11:00.36 bitrate=6352.3kbits/s speed= 103x    frame=1987599 fps=6168 q=-1.0 size=25673472kB time=09:11:38.21 bitrate=6354.3kbits/s speed= 103x    frame=1990129 fps=6166 q=-1.0 size=25715456kB time=09:12:20.29 bitrate=6356.6kbits/s speed= 103x    frame=1992648 fps=6164 q=-1.0 size=25757184kB time=09:13:02.23 bitrate=6358.9kbits/s speed= 103x    frame=1995099 fps=6162 q=-1.0 size=25797632kB time=09:13:43.04 bitrate=6361.1kbits/s speed= 103x    frame=1997629 fps=6161 q=-1.0 size=25839616kB time=09:14:25.17 bitrate=6363.4kbits/s speed= 103x    frame=1999954 fps=6158 q=-1.0 size=25878016kB time=09:15:03.88 bitrate=6365.4kbits/s speed= 103x    frame=2002413 fps=6156 q=-1.0 size=25918720kB time=09:15:44.76 bitrate=6367.6kbits/s speed= 103x    frame=2004856 fps=6154 q=-1.0 size=25959168kB time=09:16:25.45 bitrate=6369.8kbits/s speed= 102x    frame=2007126 fps=6152 q=-1.0 size=25996544kB time=09:17:03.23 bitrate=6371.7kbits/s speed= 102x    frame=2009592 fps=6150 q=-1.0 size=26037504kB time=09:17:44.31 bitrate=6373.9kbits/s speed= 102x    frame=2012133 fps=6148 q=-1.0 size=26079488kB time=09:18:26.61 bitrate=6376.1kbits/s speed= 102x    frame=2015405 fps=6149 q=-1.0 size=26114816kB time=09:19:21.05 bitrate=6374.4kbits/s speed= 102x    frame=2020210 fps=6154 q=-1.0 size=26155264kB time=09:20:41.05 bitrate=6369.1kbits/s speed= 102x    frame=2022598 fps=6152 q=-1.0 size=26194688kB time=09:21:20.86 bitrate=6371.2kbits/s speed= 102x    frame=2024951 fps=6150 q=-1.0 size=26233856kB time=09:22:00.02 bitrate=6373.3kbits/s speed= 102x    frame=2027497 fps=6148 q=-1.0 size=26275840kB time=09:22:42.43 bitrate=6375.5kbits/s speed= 102x    frame=2029938 fps=6146 q=-1.0 size=26314752kB time=09:23:23.05 bitrate=6377.2kbits/s speed= 102x    frame=2032292 fps=6144 q=-1.0 size=26353664kB time=09:24:02.24 bitrate=6379.3kbits/s speed= 102x    frame=2034857 fps=6143 q=-1.0 size=26395904kB time=09:24:44.93 bitrate=6381.5kbits/s speed= 102x    frame=2037102 fps=6140 q=-1.0 size=26432512kB time=09:25:22.32 bitrate=6383.3kbits/s speed= 102x    frame=2039584 fps=6138 q=-1.0 size=26473728kB time=09:26:03.60 bitrate=6385.4kbits/s speed= 102x    frame=2042798 fps=6139 q=-1.0 size=26515200kB time=09:26:57.06 bitrate=6385.4kbits/s speed= 102x    frame=2047441 fps=6144 q=-1.0 size=26552064kB time=09:28:14.38 bitrate=6379.8kbits/s speed= 102x    frame=2051048 fps=6145 q=-1.0 size=26593024kB time=09:29:14.45 bitrate=6378.4kbits/s speed= 102x    frame=2053633 fps=6144 q=-1.0 size=26632448kB time=09:29:57.54 bitrate=6379.8kbits/s speed= 102x    frame=2056170 fps=6142 q=-1.0 size=26672384kB time=09:30:39.79 bitrate=6381.5kbits/s speed= 102x    frame=2058798 fps=6141 q=-1.0 size=26713856kB time=09:31:23.54 bitrate=6383.2kbits/s speed= 102x    frame=2061120 fps=6138 q=-1.0 size=26750976kB time=09:32:02.19 bitrate=6384.9kbits/s speed= 102x    frame=2063693 fps=6137 q=-1.0 size=26792192kB time=09:32:44.98 bitrate=6386.8kbits/s speed= 102x    frame=2066185 fps=6135 q=-1.0 size=26833152kB time=09:33:26.46 bitrate=6388.8kbits/s speed= 102x    frame=2068648 fps=6133 q=-1.0 size=26870784kB time=09:34:07.47 bitrate=6390.2kbits/s speed= 102x    frame=2071252 fps=6132 q=-1.0 size=26911488kB time=09:34:50.84 bitrate=6391.8kbits/s speed= 102x    frame=2075502 fps=6136 q=-1.0 size=26950144kB time=09:36:01.59 bitrate=6387.9kbits/s speed= 102x    frame=2078241 fps=6135 q=-1.0 size=26987264kB time=09:36:47.22 bitrate=6388.3kbits/s speed= 102x    frame=2080841 fps=6133 q=-1.0 size=27029248kB time=09:37:30.49 bitrate=6390.2kbits/s speed= 102x    frame=2083419 fps=6132 q=-1.0 size=27068160kB time=09:38:13.42 bitrate=6391.5kbits/s speed= 102x    frame=2086176 fps=6131 q=-1.0 size=27110144kB time=09:38:59.29 bitrate=6392.9kbits/s speed= 102x    frame=2088648 fps=6129 q=-1.0 size=27150848kB time=09:39:40.44 bitrate=6395.0kbits/s speed= 102x    frame=2091017 fps=6127 q=-1.0 size=27188736kB time=09:40:19.92 bitrate=6396.6kbits/s speed= 102x    frame=2093674 fps=6126 q=-1.0 size=27231488kB time=09:41:04.16 bitrate=6398.6kbits/s speed= 102x    frame=2096256 fps=6124 q=-1.0 size=27273728kB time=09:41:47.11 bitrate=6400.6kbits/s speed= 102x    frame=2098488 fps=6122 q=-1.0 size=27310592kB time=09:42:24.29 bitrate=6402.4kbits/s speed= 102x    frame=2102505 fps=6125 q=-1.0 size=27350784kB time=09:43:31.18 bitrate=6399.6kbits/s speed= 102x    frame=2106716 fps=6128 q=-1.0 size=27387648kB time=09:44:41.32 bitrate=6395.4kbits/s speed= 102x    frame=2109257 fps=6127 q=-1.0 size=27429888kB time=09:45:23.63 bitrate=6397.6kbits/s speed= 102x    frame=2111795 fps=6125 q=-1.0 size=27471360kB time=09:46:05.88 bitrate=6399.5kbits/s speed= 102x    frame=2114100 fps=6123 q=-1.0 size=27509248kB time=09:46:44.26 bitrate=6401.4kbits/s speed= 102x    frame=2116719 fps=6122 q=-1.0 size=27549440kB time=09:47:27.85 bitrate=6402.8kbits/s speed= 102x    frame=2119354 fps=6120 q=-1.0 size=27591936kB time=09:48:11.70 bitrate=6404.7kbits/s speed= 102x    frame=2121656 fps=6118 q=-1.0 size=27629312kB time=09:48:50.09 bitrate=6406.4kbits/s speed= 102x    frame=2124187 fps=6117 q=-1.0 size=27671040kB time=09:49:32.23 bitrate=6408.4kbits/s speed= 102x    frame=2127187 fps=6116 q=-1.0 size=27708928kB time=09:50:22.20 bitrate=6408.2kbits/s speed= 102x    frame=2129576 fps=6115 q=-1.0 size=27748096kB time=09:51:01.97 bitrate=6410.0kbits/s speed= 102x    frame=2132104 fps=6113 q=-1.0 size=27789568kB time=09:51:44.05 bitrate=6412.0kbits/s speed= 102x    frame=2134420 fps=6111 q=-1.0 size=27827968kB time=09:52:22.64 bitrate=6413.9kbits/s speed= 102x    frame=2136783 fps=6109 q=-1.0 size=27867136kB time=09:53:02.00 bitrate=6415.8kbits/s speed= 102x    frame=2141778 fps=6114 q=-1.0 size=27906816kB time=09:54:25.15 bitrate=6410.0kbits/s speed= 102x    frame=2145119 fps=6115 q=-1.0 size=27942400kB time=09:55:20.78 bitrate=6408.2kbits/s speed= 102x    frame=2147704 fps=6114 q=-1.0 size=27985408kB time=09:56:03.86 bitrate=6410.3kbits/s speed= 102x    frame=2150051 fps=6112 q=-1.0 size=28024320kB time=09:56:42.92 bitrate=6412.2kbits/s speed= 102x    frame=2155164 fps=6118 q=-1.0 size=28064512kB time=09:58:08.05 bitrate=6406.2kbits/s speed= 102x    frame=2157773 fps=6116 q=-1.0 size=28105216kB time=09:58:51.48 bitrate=6407.7kbits/s speed= 102x    frame=2160165 fps=6114 q=-1.0 size=28143872kB time=09:59:31.31 bitrate=6409.4kbits/s speed= 102x    frame=2162546 fps=6113 q=-1.0 size=28182528kB time=10:00:10.96 bitrate=6411.1kbits/s speed= 102x    frame=2165011 fps=6111 q=-1.0 size=28223488kB time=10:00:51.99 bitrate=6413.1kbits/s speed= 102x    frame=2167223 fps=6108 q=-1.0 size=28259328kB time=10:01:28.77 bitrate=6414.7kbits/s speed= 102x    frame=2169715 fps=6107 q=-1.0 size=28299520kB time=10:02:10.27 bitrate=6416.5kbits/s speed= 102x    frame=2173655 fps=6109 q=-1.0 size=28339456kB time=10:03:15.87 bitrate=6413.9kbits/s speed= 102x    frame=2176920 fps=6110 q=-1.0 size=28375552kB time=10:04:10.23 bitrate=6412.4kbits/s speed= 102x    frame=2179424 fps=6108 q=-1.0 size=28417024kB time=10:04:51.92 bitrate=6414.4kbits/s speed= 102x    frame=2181931 fps=6107 q=-1.0 size=28458240kB time=10:05:33.69 bitrate=6416.4kbits/s speed= 102x    frame=2185807 fps=6109 q=-1.0 size=28493824kB time=10:06:38.21 bitrate=6413.0kbits/s speed= 102x    frame=2190193 fps=6113 q=-1.0 size=28534528kB time=10:07:51.25 bitrate=6409.3kbits/s speed= 102x    frame=2192567 fps=6111 q=-1.0 size=28572928kB time=10:08:30.79 bitrate=6411.0kbits/s speed= 102x    frame=2195263 fps=6110 q=-1.0 size=28615168kB time=10:09:15.68 bitrate=6412.6kbits/s speed= 102x    frame=2198061 fps=6109 q=-1.0 size=28656896kB time=10:10:02.27 bitrate=6413.7kbits/s speed= 102x    frame=2200442 fps=6107 q=-1.0 size=28695808kB time=10:10:41.89 bitrate=6415.5kbits/s speed= 102x    frame=2203162 fps=6106 q=-1.0 size=28737792kB time=10:11:27.20 bitrate=6417.0kbits/s speed= 102x    frame=2205828 fps=6105 q=-1.0 size=28781568kB time=10:12:11.57 bitrate=6419.0kbits/s speed= 102x    frame=2210538 fps=6110 q=-1.0 size=28817920kB time=10:13:30.07 bitrate=6413.4kbits/s speed= 102x    frame=2213215 fps=6109 q=-1.0 size=28860416kB time=10:14:14.63 bitrate=6415.1kbits/s speed= 102x    frame=2215700 fps=6107 q=-1.0 size=28901632kB time=10:14:56.04 bitrate=6417.0kbits/s speed= 102x    frame=2218157 fps=6106 q=-1.0 size=28942592kB time=10:15:36.92 bitrate=6419.0kbits/s speed= 102x    frame=2220580 fps=6104 q=-1.0 size=28982272kB time=10:16:17.28 bitrate=6420.8kbits/s speed= 102x    frame=2226248 fps=6111 q=-1.0 size=29022976kB time=10:17:51.66 bitrate=6413.4kbits/s speed= 102x    frame=2229249 fps=6111 q=-1.0 size=29063680kB time=10:18:41.66 bitrate=6413.8kbits/s speed= 102x    frame=2231727 fps=6109 q=-1.0 size=29104896kB time=10:19:22.91 bitrate=6415.7kbits/s speed= 102x    frame=2234216 fps=6108 q=-1.0 size=29146112kB time=10:20:04.33 bitrate=6417.7kbits/s speed= 102x    frame=2236808 fps=6107 q=-1.0 size=29187584kB time=10:20:47.51 bitrate=6419.3kbits/s speed= 102x    frame=2241851 fps=6112 q=-1.0 size=29227008kB time=10:22:11.50 bitrate=6413.6kbits/s speed= 102x    frame=2245343 fps=6113 q=-1.0 size=29270016kB time=10:23:09.65 bitrate=6413.0kbits/s speed= 102x    frame=2247868 fps=6112 q=-1.0 size=29311744kB time=10:23:51.73 bitrate=6414.9kbits/s speed= 102x    frame=2250484 fps=6111 q=-1.0 size=29355008kB time=10:24:35.29 bitrate=6416.9kbits/s speed= 102x    frame=2252942 fps=6109 q=-1.0 size=29395712kB time=10:25:16.20 bitrate=6418.8kbits/s speed= 102x    frame=2255410 fps=6107 q=-1.0 size=29436672kB time=10:25:57.26 bitrate=6420.7kbits/s speed= 102x    frame=2258091 fps=6106 q=-1.0 size=29478912kB time=10:26:41.94 bitrate=6422.3kbits/s speed= 102x    frame=2260715 fps=6105 q=-1.0 size=29520896kB time=10:27:25.63 bitrate=6424.0kbits/s speed= 102x    frame=2264297 fps=6107 q=-1.0 size=29561088kB time=10:28:25.28 bitrate=6422.6kbits/s speed= 102x    frame=2269838 fps=6113 q=-1.0 size=29602048kB time=10:29:57.54 bitrate=6415.8kbits/s speed= 102x    frame=2273286 fps=6114 q=-1.0 size=29644032kB time=10:30:54.99 bitrate=6415.1kbits/s speed= 102x    frame=2275951 fps=6113 q=-1.0 size=29687808kB time=10:31:39.36 bitrate=6417.1kbits/s speed= 102x    frame=2278766 fps=6113 q=-1.0 size=29730048kB time=10:32:26.20 bitrate=6418.3kbits/s speed= 102x    frame=2281311 fps=6111 q=-1.0 size=29771008kB time=10:33:08.61 bitrate=6419.9kbits/s speed= 102x    frame=2283803 fps=6110 q=-1.0 size=29811968kB time=10:33:50.10 bitrate=6421.7kbits/s speed= 102x    frame=2286479 fps=6109 q=-1.0 size=29855232kB time=10:34:34.71 bitrate=6423.5kbits/s speed= 102x    frame=2291649 fps=6114 q=-1.0 size=29895936kB time=10:36:00.76 bitrate=6417.8kbits/s speed= 102x    frame=2295826 fps=6117 q=-1.0 size=29936384kB time=10:37:10.27 bitrate=6414.8kbits/s speed= 102x    frame=2298303 fps=6116 q=-1.0 size=29977600kB time=10:37:51.51 bitrate=6416.7kbits/s speed= 102x    frame=2300993 fps=6115 q=-1.0 size=30021376kB time=10:38:36.33 bitrate=6418.5kbits/s speed= 102x    frame=2303536 fps=6113 q=-1.0 size=30063360kB time=10:39:18.66 bitrate=6420.4kbits/s speed= 102x    frame=2306122 fps=6112 q=-1.0 size=30106112kB time=10:40:01.73 bitrate=6422.3kbits/s speed= 102x    frame=2308580 fps=6111 q=-1.0 size=30146816kB time=10:40:42.65 bitrate=6424.2kbits/s speed= 102x    frame=2311146 fps=6109 q=-1.0 size=30189312kB time=10:41:25.37 bitrate=6426.1kbits/s speed= 102x    frame=2314637 fps=6110 q=-1.0 size=30231808kB time=10:42:23.48 bitrate=6425.4kbits/s speed= 102x    frame=2319917 fps=6116 q=-1.0 size=30268672kB time=10:43:51.43 bitrate=6418.6kbits/s speed= 102x    frame=2322431 fps=6115 q=-1.0 size=30309888kB time=10:44:33.30 bitrate=6420.4kbits/s speed= 102x    frame=2325696 fps=6115 q=-1.0 size=30352384kB time=10:45:27.64 bitrate=6420.4kbits/s speed= 102x    frame=2330403 fps=6120 q=-1.0 size=30387968kB time=10:46:45.96 bitrate=6414.9kbits/s speed= 102x    frame=2333081 fps=6119 q=-1.0 size=30429952kB time=10:47:30.57 bitrate=6416.4kbits/s speed= 102x    frame=2335670 fps=6117 q=-1.0 size=30472192kB time=10:48:13.68 bitrate=6418.2kbits/s speed= 102x    frame=2338144 fps=6116 q=-1.0 size=30513152kB time=10:48:54.89 bitrate=6420.0kbits/s speed= 102x    frame=2340754 fps=6115 q=-1.0 size=30555136kB time=10:49:38.34 bitrate=6421.7kbits/s speed= 102x    frame=2344238 fps=6117 q=-1.0 Lsize=30591525kB time=10:50:36.35 bitrate=6419.8kbits/s speed= 102x    
video:29889014kB audio:624020kB subtitle:0kB other streams:0kB global headers:0kB muxing overhead: 0.257239%
